<svg width="10" height="9" viewBox="0 0 10 9" fill="none" xmlns="http://www.w3.org/2000/svg">
<g id="akar-icons:twitter-fill" clip-path="url(#clip0_1_2901)">
<g id="Group">
<path id="Vector" d="M9.47644 1.93395C9.16806 2.0706 8.83678 2.16293 8.4885 2.20466C8.84786 1.98964 9.1167 1.65122 9.24488 1.25254C8.90726 1.45308 8.53775 1.59424 8.15242 1.66988C7.89329 1.39321 7.55007 1.20982 7.17605 1.1482C6.80202 1.08658 6.41811 1.15016 6.08392 1.32909C5.74974 1.50801 5.48397 1.79226 5.32789 2.1377C5.1718 2.48315 5.13413 2.87046 5.22073 3.23951C4.53662 3.20516 3.86738 3.02735 3.25645 2.71762C2.64551 2.40789 2.10653 1.97315 1.67448 1.44164C1.52675 1.69647 1.4418 1.99193 1.4418 2.30659C1.44164 2.58986 1.5114 2.86879 1.64489 3.11864C1.77838 3.36848 1.97147 3.58151 2.20704 3.73883C1.93384 3.73014 1.66667 3.65632 1.42777 3.52352V3.54568C1.42774 3.94297 1.56517 4.32804 1.81673 4.63555C2.0683 4.94306 2.41851 5.15406 2.80793 5.23275C2.5545 5.30134 2.28879 5.31144 2.03087 5.26229C2.14075 5.60415 2.35477 5.90308 2.64298 6.11725C2.93119 6.33142 3.27916 6.45011 3.63817 6.45669C3.02873 6.93511 2.27606 7.19463 1.50126 7.19349C1.36402 7.19353 1.22688 7.18551 1.09058 7.16948C1.87704 7.67515 2.79255 7.94352 3.72755 7.94248C6.89265 7.94248 8.62294 5.32102 8.62294 3.04746C8.62294 2.97359 8.62109 2.89899 8.61777 2.82513C8.95433 2.58173 9.24485 2.28033 9.47571 1.93505L9.47644 1.93395Z" fill="#086BED"/>
</g>
</g>
<defs>
<clipPath id="clip0_1_2901">
<rect width="8.86377" height="8.86377" fill="white" transform="translate(0.744263 0.110535)"/>
</clipPath>
</defs>
</svg>
