<svg width="10" height="9" viewBox="0 0 10 9" fill="none" xmlns="http://www.w3.org/2000/svg">
<g id="ant-design:instagram-filled" clip-path="url(#clip0_1_2904)">
<path id="Vector" d="M4.71018 3.38838C4.07483 3.38838 3.55633 3.90687 3.55633 4.54222C3.55633 5.17758 4.07483 5.69607 4.71018 5.69607C5.34554 5.69607 5.86403 5.17758 5.86403 4.54222C5.86403 3.90687 5.34554 3.38838 4.71018 3.38838ZM8.17086 4.54222C8.17086 4.06441 8.17519 3.59093 8.14836 3.11398C8.12152 2.55999 7.99515 2.06833 7.59004 1.66323C7.18408 1.25726 6.69328 1.13175 6.13929 1.10492C5.66148 1.07808 5.188 1.08241 4.71105 1.08241C4.23324 1.08241 3.75975 1.07808 3.2828 1.10492C2.72882 1.13175 2.23716 1.25813 1.83205 1.66323C1.42609 2.0692 1.30057 2.55999 1.27374 3.11398C1.24691 3.59179 1.25123 4.06528 1.25123 4.54222C1.25123 5.01917 1.24691 5.49352 1.27374 5.97047C1.30057 6.52446 1.42695 7.01612 1.83205 7.42122C2.23802 7.82719 2.72882 7.9527 3.2828 7.97953C3.76062 8.00637 4.2341 8.00204 4.71105 8.00204C5.18886 8.00204 5.66235 8.00637 6.13929 7.97953C6.69328 7.9527 7.18494 7.82632 7.59004 7.42122C7.99601 7.01525 8.12152 6.52446 8.14836 5.97047C8.17606 5.49352 8.17086 5.02004 8.17086 4.54222ZM4.71018 6.31758C3.72772 6.31758 2.93483 5.52468 2.93483 4.54222C2.93483 3.55977 3.72772 2.76687 4.71018 2.76687C5.69264 2.76687 6.48553 3.55977 6.48553 4.54222C6.48553 5.52468 5.69264 6.31758 4.71018 6.31758ZM6.55825 3.10879C6.32886 3.10879 6.14362 2.92355 6.14362 2.69416C6.14362 2.46478 6.32886 2.27954 6.55825 2.27954C6.78763 2.27954 6.97287 2.46478 6.97287 2.69416C6.97294 2.74863 6.96226 2.80258 6.94145 2.85291C6.92063 2.90325 6.8901 2.94898 6.85158 2.9875C6.81307 3.02601 6.76733 3.05655 6.717 3.07736C6.66666 3.09818 6.61271 3.10886 6.55825 3.10879Z" fill="#086BED"/>
</g>
<defs>
<clipPath id="clip0_1_2904">
<rect width="8.86377" height="8.86377" fill="white" transform="translate(0.278198 0.110413)"/>
</clipPath>
</defs>
</svg>
