<svg width="10" height="9" viewBox="0 0 10 9" fill="none" xmlns="http://www.w3.org/2000/svg">
<g id="cib:linkedin-in" clip-path="url(#clip0_1_2906)">
<path id="Vector" d="M2.50072 7.86628H0.892774V2.68817H2.50072V7.86628ZM1.69578 1.98184C1.18168 1.98184 0.764526 1.55582 0.764526 1.04172C0.764526 0.794741 0.86264 0.557874 1.03728 0.383231C1.21193 0.208587 1.44879 0.110474 1.69578 0.110474C1.94276 0.110474 2.17963 0.208587 2.35427 0.383231C2.52891 0.557874 2.62703 0.794741 2.62703 1.04172C2.62703 1.55582 2.20988 1.98184 1.69578 1.98184ZM8.51867 7.86628H6.91432V5.34564C6.91432 4.74484 6.90214 3.97452 6.07836 3.97452C5.24239 3.97452 5.11415 4.62712 5.11415 5.30243V7.86628H3.50786V2.68817H5.04988V3.3945H5.07232C5.28699 2.9876 5.81134 2.55826 6.59357 2.55826C8.2209 2.55826 8.52005 3.62995 8.52005 5.02184V7.86628H8.51867Z" fill="#086BED"/>
</g>
<defs>
<clipPath id="clip0_1_2906">
<rect width="8.86377" height="8.86377" fill="white" transform="translate(0.210693 0.110535)"/>
</clipPath>
</defs>
</svg>
