<svg width="142" height="35" viewBox="0 0 142 35" fill="none" xmlns="http://www.w3.org/2000/svg">
<g id="clickup logo 1" clip-path="url(#clip0_163_259)">
<path id="Vector" fill-rule="evenodd" clip-rule="evenodd" d="M0.397461 25.4414L5.45905 21.5645C8.1469 25.0737 11.0013 26.6908 14.182 26.6908C17.3451 26.6908 20.121 25.0923 22.6884 21.6109L27.8197 25.395C24.118 30.4146 19.5126 33.0665 14.182 33.0665C8.86905 33.0665 4.22094 30.4332 0.397461 25.4414Z" fill="url(#paint0_linear_163_259)"/>
<path id="Vector_2" fill-rule="evenodd" clip-rule="evenodd" d="M14.1658 8.59155L5.157 16.3543L0.995117 11.5244L14.1837 0.159912L27.2698 11.5332L23.0874 16.3454L14.1658 8.59155Z" fill="url(#paint1_linear_163_259)"/>
<path id="Vector_3" d="M62.3706 6.71338H57.27V27.9658H62.3706V6.71338Z" fill="black"/>
<path id="Vector_4" fill-rule="evenodd" clip-rule="evenodd" d="M46.9618 28.0596C43.955 28.0596 41.4493 27.0852 39.4169 25.1363C37.3846 23.1596 36.3823 20.6261 36.3823 17.5358C36.3823 14.4176 37.4124 11.8563 39.4448 9.85179C41.505 7.81939 44.0106 6.81714 46.9896 6.81714C50.6645 6.81714 53.922 8.40404 55.815 10.8819L52.502 14.362C50.915 12.6637 49.189 11.8006 47.3237 11.8006C45.7368 11.8006 44.4283 12.3296 43.3425 13.4154C42.2845 14.5012 41.7556 15.8654 41.7556 17.508C41.7556 19.0949 42.2845 20.4312 43.3425 21.517C44.4283 22.575 45.7368 23.1039 47.2959 23.1039C49.3282 23.1039 51.11 22.213 52.5855 20.4591L56.038 23.7721C55.0915 25.0249 53.8105 26.055 52.2235 26.8624C50.637 27.6698 48.8828 28.0596 46.9618 28.0596Z" fill="black"/>
<path id="Vector_5" fill-rule="evenodd" clip-rule="evenodd" d="M70.021 8.41368C70.021 9.93958 68.7845 11.1765 67.2585 11.1765C65.7325 11.1765 64.4955 9.93958 64.4955 8.41368C64.4955 6.88783 65.7325 5.65088 67.2585 5.65088C68.7845 5.65088 70.021 6.88783 70.021 8.41368ZM69.8085 12.4516H64.708V27.9659H69.8085V12.4516Z" fill="black"/>
<path id="Vector_6" fill-rule="evenodd" clip-rule="evenodd" d="M79.668 28.0875C77.246 28.0875 75.297 27.3358 73.766 25.8324C72.2625 24.329 71.5105 22.408 71.5105 20.0416C71.5105 17.6751 72.2625 15.7541 73.7935 14.2507C75.325 12.7473 77.3015 11.9956 79.7515 11.9956C82.9535 11.9956 85.765 13.5547 87.0735 16.478L83.148 18.5382C82.3685 17.2297 81.283 16.5615 79.863 16.5615C78.833 16.5615 77.9975 16.8956 77.3295 17.5637C76.689 18.2319 76.355 19.0671 76.355 20.0416C76.355 22.0739 77.8305 23.5773 79.8075 23.5773C81.227 23.5773 82.5355 22.7978 83.0925 21.6006L87.018 23.9393C85.6815 26.5006 82.9255 28.0875 79.668 28.0875Z" fill="black"/>
<path id="Vector_7" fill-rule="evenodd" clip-rule="evenodd" d="M93.3995 6.71338H88.299V27.9658H93.3995V22.5555L93.997 21.9981L98.6595 27.9658H104.593L97.4295 18.7972L104.235 12.4515H98.002L93.3995 16.7437V6.71338Z" fill="black"/>
<path id="Vector_8" fill-rule="evenodd" clip-rule="evenodd" d="M105.513 19.9349V6.71338H110.826V19.6389C110.826 21.9497 112.173 23.0633 114.12 23.0633C116.039 23.0633 117.414 21.894 117.414 19.6389V6.71338H122.728V19.9349C122.728 26.0042 118.466 28.2871 114.12 28.2871C109.802 28.2871 105.513 26.0042 105.513 19.9349Z" fill="black"/>
<path id="Vector_9" fill-rule="evenodd" clip-rule="evenodd" d="M134.204 28.3909C138.312 28.3909 141.643 24.7752 141.643 20.3149C141.643 15.8547 138.312 12.239 134.204 12.239C132.529 12.239 130.984 12.8398 129.741 13.8535V12.4516H124.853V34.3416H129.741V26.7764C130.984 27.7901 132.529 28.3909 134.204 28.3909ZM129.741 20.3232V20.3066C129.745 18.3151 131.313 16.702 133.247 16.702C135.184 16.702 136.755 18.3196 136.755 20.3149C136.755 22.3103 135.184 23.9278 133.247 23.9278C131.313 23.9278 129.745 22.3148 129.741 20.3232Z" fill="black"/>
</g>
<defs>
<linearGradient id="paint0_linear_163_259" x1="0.397461" y1="35.1376" x2="27.8197" y2="35.1376" gradientUnits="userSpaceOnUse">
<stop stop-color="#8930FD"/>
<stop offset="1" stop-color="#49CCF9"/>
</linearGradient>
<linearGradient id="paint1_linear_163_259" x1="0.995117" y1="19.2702" x2="27.2698" y2="19.2702" gradientUnits="userSpaceOnUse">
<stop stop-color="#FF02F0"/>
<stop offset="1" stop-color="#FFC800"/>
</linearGradient>
<clipPath id="clip0_163_259">
<rect width="142" height="34.5" fill="white"/>
</clipPath>
</defs>
</svg>
