<svg width="138" height="32" viewBox="0 0 138 32" fill="none" xmlns="http://www.w3.org/2000/svg">
<g id="dropbox_blue 1" clip-path="url(#clip0_163_28)">
<g id="XMLID_12_">
<path id="XMLID_29_" d="M38.7126 6.80469H45.3701C51.0713 6.80469 54.6759 10.4828 54.6759 16.2208C54.6759 21.9587 51.0897 25.6369 45.3701 25.6369H38.7126V6.80469ZM45.223 22.1978C48.8092 22.1978 50.777 19.8989 50.777 16.2392C50.777 12.561 48.8092 10.2622 45.223 10.2622H42.6115V22.1978H45.223Z" fill="#007EE5"/>
<path id="XMLID_27_" d="M64.7724 15.6874C64.2575 15.3748 63.577 15.2276 62.8598 15.2276C61.5724 15.2276 60.5241 15.9081 60.2483 17.1587V25.6552H56.4598V11.9357H60.2667V13.2782C60.8552 12.3035 61.977 11.623 63.3379 11.623C63.9816 11.623 64.5701 11.7518 64.7724 11.8621V15.6874Z" fill="#007EE5"/>
<path id="XMLID_24_" d="M72.3678 25.9679C68.377 25.9679 65.6368 23.0253 65.6368 18.8139C65.6368 14.584 68.377 11.623 72.3678 11.623C76.3586 11.623 79.0805 14.5656 79.0805 18.8139C79.0805 23.0253 76.3586 25.9679 72.3678 25.9679ZM72.3678 14.8598C70.4552 14.8598 69.4253 16.515 69.4253 18.8139C69.4253 21.0759 70.4736 22.7495 72.3678 22.7495C74.2621 22.7495 75.3103 21.0943 75.3103 18.8139C75.3103 16.515 74.2621 14.8598 72.3678 14.8598Z" fill="#007EE5"/>
<path id="XMLID_21_" d="M84.5242 30.731H80.7173V11.9356H84.5242V13.0758C85.1311 12.3402 86.492 11.6414 87.9632 11.6414C91.954 11.6414 94.2161 14.9517 94.2161 18.8322C94.2161 22.6942 91.954 25.9862 87.9632 25.9862C86.492 25.9862 85.1311 25.2873 84.5242 24.5517V30.731ZM84.5242 21.0575C84.9839 22.0138 85.9954 22.6574 87.0989 22.6574C89.1586 22.6574 90.3908 21.0023 90.3908 18.8138C90.3908 16.6069 89.1586 14.9517 87.0989 14.9517C85.9586 14.9517 84.9839 15.6322 84.5242 16.5517V21.0575Z" fill="#007EE5"/>
<path id="XMLID_18_" d="M99.6965 25.6552H95.8529V5.70117H99.6965V13.0759C100.303 12.3403 101.664 11.6414 103.136 11.6414C107.126 11.6414 109.37 14.8966 109.37 18.8322C109.37 22.7678 107.126 25.9862 103.136 25.9862C101.664 25.9862 100.303 25.2874 99.6965 24.5517V25.6552ZM99.6965 21.0575C100.12 22.0138 101.131 22.6575 102.271 22.6575C104.331 22.6575 105.563 21.0023 105.563 18.8138C105.563 16.6069 104.331 14.9517 102.271 14.9517C101.168 14.9517 100.12 15.6322 99.6965 16.5517V21.0575Z" fill="#007EE5"/>
<path id="XMLID_15_" d="M117.462 26.0047C113.471 26.0047 110.731 23.0622 110.731 18.8507C110.731 14.6208 113.471 11.6599 117.462 11.6599C121.453 11.6599 124.175 14.6024 124.175 18.8507C124.175 23.0622 121.435 26.0047 117.462 26.0047ZM117.462 14.8967C115.549 14.8967 114.52 16.5519 114.52 18.8507C114.52 21.1128 115.568 22.7863 117.462 22.7863C119.356 22.7863 120.405 21.1312 120.405 18.8507C120.405 16.5519 119.356 14.8967 117.462 14.8967Z" fill="#007EE5"/>
<path id="XMLID_13_" d="M132.726 18.5748L137.729 25.6736H133.517L130.575 21.3702L127.595 25.6736H123.605L128.552 18.6667L123.899 11.9541H128.11L130.759 15.853L133.444 11.9541H137.435L132.726 18.5748Z" fill="#007EE5"/>
</g>
<g id="XMLID_6_">
<path id="XMLID_11_" d="M10.0965 0.349365L0.183899 6.73097L7.04367 12.2666L17.0115 6.10569L10.0965 0.349365Z" fill="#007EE5"/>
<path id="XMLID_10_" d="M0.183899 17.6735L10.0965 24.1838L17.0115 18.4275L7.04367 12.2666L0.183899 17.6735Z" fill="#007EE5"/>
<path id="XMLID_9_" d="M17.0115 18.4275L23.9264 24.1838L33.8023 17.7471L26.9609 12.2666L17.0115 18.4275Z" fill="#007EE5"/>
<path id="XMLID_8_" d="M33.8023 6.78615L23.9264 0.349365L17.0115 6.10569L26.9609 12.2666L33.8023 6.78615Z" fill="#007EE5"/>
<path id="XMLID_7_" d="M17.0299 19.6597L10.0965 25.416L7.11722 23.485V25.6551L17.0299 31.5953L26.9241 25.6551V23.485L23.9632 25.416L17.0299 19.6597Z" fill="#007EE5"/>
</g>
</g>
<defs>
<clipPath id="clip0_163_28">
<rect width="137.931" height="32" fill="white"/>
</clipPath>
</defs>
</svg>
