<svg width="187" height="64" viewBox="0 0 187 64" fill="none" xmlns="http://www.w3.org/2000/svg">
<g id="Elastic logo 1" clip-path="url(#clip0_163_290)">
<g id="Group">
<path id="Vector" d="M64.0186 33.4106C64.0246 30.8128 63.2275 28.2768 61.7358 26.1498C60.2445 24.0229 58.1317 22.4091 55.6874 21.5296C55.91 20.3959 56.022 19.2432 56.0223 18.0878C56.0246 14.2634 54.8138 10.5368 52.5645 7.44379C50.3152 4.3508 47.1431 2.05072 43.504 0.874264C39.8653 -0.302196 35.9469 -0.294444 32.3126 0.896407C28.6783 2.08726 25.5152 4.39988 23.2782 7.50172C21.6278 6.2228 19.6055 5.51653 17.5177 5.49C15.4299 5.46347 13.3903 6.11806 11.7079 7.3546C10.0255 8.59118 8.79193 10.3424 8.19401 12.3429C7.59613 14.3434 7.66649 16.4843 8.39446 18.4413C5.94434 19.3343 3.82649 20.9563 2.32574 23.089C0.825001 25.2217 0.0133782 27.7628 4.2899e-05 30.3706C-0.00675572 32.9773 0.794683 35.522 2.29402 37.6543C3.79334 39.7867 5.91684 41.402 8.37213 42.2775C8.15479 43.4109 8.04391 44.5618 8.04097 45.7157C8.03732 49.5356 9.24692 53.258 11.4953 56.3464C13.7438 59.4344 16.9148 61.7287 20.5513 62.8986C24.1878 64.0681 28.1018 64.0528 31.729 62.8543C35.3562 61.6561 38.509 59.3369 40.733 56.231C42.3788 57.5133 44.3974 58.2236 46.4834 58.2548C48.5693 58.2861 50.6084 57.6361 52.2914 56.4037C53.9747 55.1709 55.21 53.4232 55.8099 51.4254C56.41 49.4273 56.3423 47.2885 55.6167 45.3324C58.0681 44.4409 60.1875 42.8193 61.6889 40.6865C63.1907 38.5536 64.0022 36.0116 64.0149 33.4031" fill="white"/>
<path id="Vector_2" d="M25.1684 27.4642L39.1777 33.8604L53.3172 21.4772C53.5207 20.4554 53.6219 19.4158 53.6186 18.3739C53.6178 15.0009 52.5377 11.7167 50.5358 9.00176C48.5343 6.28685 45.7164 4.28384 42.4941 3.28581C39.2722 2.28777 35.8154 2.34711 32.6296 3.45513C29.4437 4.56317 26.6961 6.6617 24.7888 9.44369L22.4335 21.626L25.1684 27.4642Z" fill="#FEC514"/>
<path id="Vector_3" d="M10.6679 42.2997C10.4614 43.3374 10.3579 44.3931 10.3591 45.4513C10.3592 48.8385 11.4449 52.1363 13.4571 54.8608C15.4692 57.5856 18.3017 59.5934 21.5388 60.5899C24.776 61.5864 28.2474 61.519 31.4434 60.3975C34.6395 59.2764 37.392 57.16 39.2967 54.3592L41.6297 42.2029L38.5153 36.2495L24.454 29.842L10.6679 42.2997Z" fill="#00BFB3"/>
<path id="Vector_4" d="M10.5824 18.0576L20.1824 20.3236L22.2847 9.40644C20.979 8.41634 19.3876 7.87584 17.749 7.86586C16.1104 7.85585 14.5125 8.37697 13.1949 9.35111C11.8772 10.3252 10.9105 11.7 10.4395 13.2695C9.96855 14.8391 10.0187 16.5189 10.5824 18.0576Z" fill="#F04E98"/>
<path id="Vector_5" d="M9.74893 20.3423C7.64258 21.0531 5.8101 22.4026 4.50636 24.2032C3.2026 26.0038 2.49239 28.1659 2.47449 30.3888C2.47298 32.5372 3.12541 34.6352 4.34506 36.4038C5.56467 38.1726 7.29375 39.5281 9.30242 40.2902L22.7722 28.1153L20.2978 22.8316L9.74893 20.3423Z" fill="#1BA9F5"/>
<path id="Vector_6" d="M41.76 54.359C43.0638 55.3439 44.6512 55.8812 46.285 55.8898C47.9189 55.8984 49.5118 55.3785 50.8257 54.4074C52.1399 53.4362 53.1044 52.0658 53.5758 50.5012C54.0469 48.9369 53.9993 47.2617 53.44 45.7265L43.8474 43.4939L41.76 54.359Z" fill="#93C90E"/>
<path id="Vector_7" d="M43.7098 40.9675L54.2698 43.4345C56.3773 42.7257 58.211 41.3768 59.5152 39.5755C60.8193 37.7746 61.5285 35.6115 61.5442 33.388C61.5423 31.2442 60.8885 29.1515 59.6699 27.3878C58.451 25.6241 56.7248 24.2726 54.72 23.5127L40.9079 35.6057L43.7098 40.9675Z" fill="#0077CC"/>
<path id="Vector_8" d="M89.5107 44.8001L90.7907 44.6699L90.88 47.2745C88.0316 47.7047 85.1576 47.941 82.2772 47.9815C79.1022 47.9815 76.8521 47.0625 75.5275 45.2243C74.2028 43.3862 73.5416 40.5259 73.5442 36.6439C73.5442 28.9118 76.6177 25.0445 82.7647 25.042C85.7414 25.042 87.9617 25.873 89.4251 27.535C90.8889 29.197 91.6231 31.8017 91.6279 35.349L91.453 37.8643H76.8968C76.8968 40.3052 77.3384 42.1136 78.2214 43.2894C79.1048 44.4652 80.64 45.0532 82.8279 45.0532C85.021 45.0606 87.2484 44.9761 89.5107 44.8001ZM88.32 35.2299C88.32 32.5236 87.8873 30.6122 87.0214 29.4959C86.1555 28.3797 84.7442 27.8203 82.787 27.8178C80.8298 27.8178 79.3589 28.4057 78.374 29.5815C77.3894 30.7573 76.8819 32.6401 76.8521 35.2299H88.32Z" fill="#1C1E23"/>
<path id="Vector_9" d="M96.2418 47.8065V18.7832H99.5497V47.8065H96.2418Z" fill="#1C1E23"/>
<path id="Vector_10" d="M120.383 32.1413V43.2669C120.383 44.3832 123.129 44.3237 123.129 44.3237L122.962 47.2483C120.636 47.2483 118.713 47.4418 117.559 46.3218C115.061 47.4314 112.355 47.9959 109.622 47.9776C107.596 47.9776 106.051 47.4035 104.99 46.2548C103.928 45.1062 103.398 43.4556 103.401 41.3023C103.401 39.1542 103.945 37.5728 105.034 36.5581C106.124 35.5435 107.829 34.9234 110.151 34.6976L117.075 34.039V32.1413C117.075 30.653 116.753 29.5789 116.108 28.919C115.754 28.5873 115.338 28.3306 114.882 28.1643C114.427 27.998 113.943 27.9257 113.459 27.9516H104.767V25.0381H113.239C115.74 25.0381 117.555 25.6124 118.687 26.7609C119.818 27.9094 120.383 29.7029 120.383 32.1413ZM106.791 41.1385C106.791 43.8448 107.907 45.1981 110.14 45.1981C112.154 45.1959 114.153 44.8524 116.052 44.1823L117.064 43.8288V36.5506L110.549 37.1683C109.224 37.2874 108.268 37.6695 107.68 38.3144C107.092 38.9592 106.796 39.9006 106.791 41.1385Z" fill="#1C1E23"/>
<path id="Vector_11" d="M133.299 27.9963C130.091 27.9963 128.487 29.1126 128.487 31.3451C128.487 32.3771 128.86 33.1051 129.604 33.5293C130.348 33.9535 132.024 34.3951 134.631 34.854C137.25 35.3129 139.103 35.9529 140.19 36.774C141.276 37.5952 141.821 39.1379 141.823 41.4028C141.823 43.67 141.095 45.3321 139.639 46.3888C138.183 47.4456 136.058 47.9751 133.265 47.9777C131.442 47.9777 125.354 47.3005 125.354 47.3005L125.533 44.4354C129.031 44.7702 131.557 45.0195 133.265 45.0195C134.973 45.0195 136.272 44.7479 137.168 44.2047C138.065 43.6614 138.512 42.7498 138.512 41.4698C138.512 40.1898 138.14 39.3228 137.366 38.8651C136.592 38.4074 134.925 37.9758 132.339 37.5628C129.753 37.1498 127.911 36.547 126.824 35.7544C125.738 34.9619 125.191 33.4884 125.191 31.3414C125.191 29.1944 125.935 27.6205 127.464 26.5786C128.993 25.5368 130.869 25.0344 133.131 25.0344C134.925 25.0344 141.15 25.4921 141.15 25.4921V28.3758C137.864 28.2307 135.178 27.9963 133.299 27.9963Z" fill="#1C1E23"/>
<path id="Vector_12" d="M157.767 28.3461H150.753V38.8912C150.753 41.4188 150.937 43.0798 151.304 43.8735C151.676 44.6698 152.547 45.0642 153.927 45.0642L157.853 44.8L158.076 47.5349C156.59 47.8099 155.085 47.9725 153.574 48.0223C151.282 48.0223 149.694 47.4631 148.811 46.3442C147.928 45.2253 147.488 43.0932 147.49 39.9479V28.3461H144.372V25.481H147.505V18.7312H150.768V25.481H157.767V28.3461Z" fill="#1C1E23"/>
<path id="Vector_13" d="M162.367 22.6642V18.8242H165.674V22.6642H162.367ZM162.367 47.8065V25.481H165.674V47.8065H162.367Z" fill="#1C1E23"/>
<path id="Vector_14" d="M180.004 25.0381C181.656 25.1086 183.301 25.2863 184.93 25.5702L185.987 25.7004L185.857 28.3906C184.128 28.1716 182.39 28.04 180.647 27.9962C178.147 27.9962 176.449 28.5916 175.553 29.7823C174.658 30.973 174.209 33.1783 174.206 36.3981C174.206 39.623 174.626 41.8652 175.464 43.1255C176.302 44.3858 178.051 45.0184 180.711 45.0232L185.92 44.6288L186.054 47.3637C184.026 47.7071 181.978 47.9136 179.922 47.9813C176.484 47.9813 174.11 47.0984 172.8 45.332C171.49 43.5657 170.835 40.589 170.835 36.4018C170.835 32.212 171.541 29.2713 172.953 27.5795C174.364 25.8877 176.714 25.0406 180.004 25.0381Z" fill="#1C1E23"/>
</g>
</g>
<defs>
<clipPath id="clip0_163_290">
<rect width="186.047" height="64" fill="white"/>
</clipPath>
</defs>
</svg>
