<svg width="51" height="16" viewBox="0 0 51 16" fill="none" xmlns="http://www.w3.org/2000/svg">
<g id="Group">
<g id="Group_2">
<path id="Vector" d="M10.9565 3.58254C10.9464 3.51185 10.8858 3.47146 10.8353 3.47146C10.7849 3.47146 9.78513 3.45126 9.78513 3.45126C9.78513 3.45126 8.94699 2.64341 8.8662 2.55252C8.78541 2.47174 8.62384 2.49193 8.56326 2.51213C8.56326 2.51213 8.40168 2.56262 8.13913 2.64341C8.09874 2.50203 8.02805 2.33036 7.93717 2.1486C7.64432 1.5831 7.2 1.28015 6.6749 1.28015C6.6345 1.28015 6.60421 1.28015 6.56382 1.29025C6.54362 1.27006 6.53352 1.24986 6.51333 1.23976C6.28107 0.997405 5.98822 0.876227 5.63479 0.886325C4.95821 0.906522 4.28163 1.40133 3.72623 2.26978C3.3425 2.88576 3.04965 3.65322 2.95877 4.24902C2.18121 4.49137 1.63591 4.66304 1.61571 4.66304C1.22188 4.78422 1.21178 4.79432 1.16129 5.16795C1.1411 5.4507 0.111084 13.4182 0.111084 13.4182L8.75512 14.9127L12.5015 13.9837C12.4914 13.9837 10.9666 3.65322 10.9565 3.58254ZM7.70491 2.78478C7.50295 2.84537 7.28079 2.91606 7.03843 2.99684C7.03843 2.65351 6.98794 2.16879 6.83647 1.76487C7.35147 1.84565 7.60393 2.43135 7.70491 2.78478ZM6.58401 3.12812C6.1296 3.26949 5.63478 3.42097 5.13997 3.57244C5.28135 3.03724 5.5439 2.51213 5.86704 2.1587C5.98822 2.02742 6.15989 1.88604 6.35176 1.80526C6.55372 2.19909 6.59411 2.75449 6.58401 3.12812ZM5.65498 1.34074C5.81655 1.34074 5.94783 1.37104 6.05891 1.45182C5.87714 1.54271 5.69537 1.68408 5.5338 1.86585C5.09958 2.33036 4.76634 3.04733 4.63507 3.74411C4.22104 3.87538 3.81711 3.99656 3.45358 4.10764C3.69594 3.00694 4.61487 1.37104 5.65498 1.34074Z" fill="#95BF47"/>
<g id="Group_3">
<path id="Vector_2" d="M10.8354 3.47141C10.7849 3.47141 9.78514 3.45121 9.78514 3.45121C9.78514 3.45121 8.94699 2.64336 8.86621 2.55247C8.83591 2.52218 8.79552 2.50198 8.75513 2.50198V14.9126L12.5015 13.9836C12.5015 13.9836 10.9767 3.65318 10.9666 3.58249C10.9464 3.5118 10.8858 3.47141 10.8354 3.47141Z" fill="#5E8E3E"/>
<path id="Vector_3" d="M6.67488 5.40021L6.24066 7.02601C6.24066 7.02601 5.75595 6.80385 5.18035 6.84424C4.33211 6.89474 4.33211 7.42994 4.33211 7.56121C4.3826 8.28828 6.29115 8.44985 6.40223 10.1564C6.48302 11.4995 5.69536 12.4184 4.54417 12.4891C3.17082 12.5598 2.41345 11.752 2.41345 11.752L2.7063 10.5099C2.7063 10.5099 3.47376 11.0855 4.07965 11.0451C4.47348 11.0249 4.62495 10.6916 4.60476 10.4695C4.54417 9.52026 2.98905 9.58085 2.88807 8.01563C2.80728 6.70287 3.66563 5.38001 5.56408 5.25883C6.30125 5.20834 6.67488 5.40021 6.67488 5.40021Z" fill="white"/>
</g>
</g>
<g id="Group_4">
<path id="s_4_" d="M17.5708 8.8639C17.1366 8.63164 16.9145 8.42967 16.9145 8.15702C16.9145 7.81369 17.2275 7.59153 17.7122 7.59153C18.2777 7.59153 18.7826 7.82378 18.7826 7.82378L19.1765 6.612C19.1765 6.612 18.8129 6.32925 17.7425 6.32925C16.248 6.32925 15.2079 7.1876 15.2079 8.38928C15.2079 9.07596 15.6926 9.59096 16.3389 9.9646C16.864 10.2574 17.0457 10.4695 17.0457 10.7825C17.0457 11.1057 16.7832 11.3682 16.2985 11.3682C15.5815 11.3682 14.8948 10.9946 14.8948 10.9946L14.4707 12.2064C14.4707 12.2064 15.0968 12.6305 16.1571 12.6305C17.692 12.6305 18.8028 11.8732 18.8028 10.5099C18.7927 9.77273 18.2373 9.24763 17.5708 8.8639Z" fill="black"/>
<path id="h_4_" d="M23.6903 6.30909C22.9329 6.30909 22.3371 6.67262 21.8827 7.21792L21.8625 7.20782L22.5189 3.77444H20.8123L19.1461 12.5195H20.8527L21.4182 9.5304C21.6404 8.39941 22.2261 7.70263 22.7714 7.70263C23.1551 7.70263 23.3066 7.96519 23.3066 8.33882C23.3066 8.57108 23.2864 8.86392 23.2359 9.09618L22.5896 12.5195H24.2962L24.9627 8.9851C25.0334 8.61147 25.0838 8.16715 25.0838 7.8642C25.0939 6.89478 24.589 6.30909 23.6903 6.30909Z" fill="black"/>
<path id="o_4_" d="M28.9616 6.30905C26.9016 6.30905 25.5383 8.16712 25.5383 10.2372C25.5383 11.5601 26.3563 12.6305 27.8912 12.6305C29.9108 12.6305 31.2741 10.8229 31.2741 8.70232C31.2842 7.48044 30.5672 6.30905 28.9616 6.30905ZM28.1235 11.3278C27.5378 11.3278 27.2954 10.833 27.2954 10.2069C27.2954 9.22742 27.8003 7.63191 28.7294 7.63191C29.3352 7.63191 29.5372 8.15702 29.5372 8.66193C29.5372 9.71214 29.0222 11.3278 28.1235 11.3278Z" fill="black"/>
<path id="p_4_" d="M35.6567 6.30905C34.5055 6.30905 33.8491 7.32897 33.8491 7.32897H33.8289L33.9299 6.41003H32.4152C32.3445 7.02602 32.2031 7.97525 32.0718 8.68212L30.8802 14.943H32.5868L33.0615 12.4083H33.1018C33.1018 12.4083 33.4553 12.6305 34.1016 12.6305C36.1111 12.6305 37.4239 10.5705 37.4239 8.49026C37.4239 7.33907 36.9089 6.30905 35.6567 6.30905ZM34.0208 11.348C33.5765 11.348 33.3139 11.0956 33.3139 11.0956L33.5967 9.50007C33.7986 8.42967 34.354 7.7228 34.9498 7.7228C35.4749 7.7228 35.6365 8.20751 35.6365 8.66193C35.6365 9.77273 34.9801 11.348 34.0208 11.348Z" fill="black"/>
<path id="dot_4_" d="M39.8676 3.85519C39.3223 3.85519 38.8881 4.28942 38.8881 4.84481C38.8881 5.34972 39.2112 5.70316 39.6959 5.70316H39.7161C40.2513 5.70316 40.7057 5.33963 40.7158 4.71354C40.7158 4.21873 40.3826 3.85519 39.8676 3.85519Z" fill="black"/>
<path id="i_4_" d="M37.4744 12.5093H39.181L40.3422 6.45044H38.6256L37.4744 12.5093Z" fill="black"/>
<path id="f_4_" d="M44.6945 6.44029H43.503L43.5635 6.15755C43.6645 5.57185 44.0079 5.05684 44.5835 5.05684C44.8864 5.05684 45.1288 5.14773 45.1288 5.14773L45.462 3.80467C45.462 3.80467 45.1692 3.6532 44.533 3.6532C43.9271 3.6532 43.3212 3.82487 42.8567 4.2187C42.271 4.71351 41.9983 5.43048 41.8671 6.15755L41.8166 6.44029H41.0188L40.7664 7.73286H41.5641L40.6553 12.5194H42.3619L43.2707 7.73286H44.4522L44.6945 6.44029Z" fill="black"/>
<path id="y_4_" d="M48.8145 6.45044C48.8145 6.45044 47.7441 9.14665 47.2695 10.621H47.2493C47.219 10.1464 46.8252 6.45044 46.8252 6.45044H45.0277L46.0577 12.0145C46.0779 12.1357 46.0678 12.2165 46.0174 12.2973C45.8154 12.681 45.4822 13.0546 45.0883 13.3273C44.7652 13.5596 44.4016 13.711 44.1189 13.812L44.5935 15.2661C44.9368 15.1955 45.6639 14.9026 46.2698 14.3371C47.0474 13.61 47.7744 12.479 48.5116 10.9441L50.6019 6.45044H48.8145Z" fill="black"/>
</g>
</g>
</svg>
