<svg width="57" height="10" viewBox="0 0 57 10" fill="none" xmlns="http://www.w3.org/2000/svg">
<g id="Group">
<path id="Vector" d="M4.76696 2.60883H5.66127C6.2202 2.60883 6.8015 2.72062 6.8015 3.36898C6.8015 3.92792 6.44378 4.33036 5.39297 4.33036H4.40924L4.76696 2.60883ZM0.832031 8.93602H3.42551L3.96209 6.3649H5.72834C7.9641 6.3649 9.41734 4.8893 9.41734 3.16777C9.41734 1.28973 8.41125 0.417786 6.84622 0.417786H2.62064L0.832031 8.93602Z" fill="#004B8D"/>
<path id="Vector_2" d="M12.6144 3.34663L12.9274 5.89539H11.2953L12.6144 3.34663ZM7.00269 8.93602H9.68559L10.334 7.72871H13.1063L13.2404 8.93602H15.8116L14.5148 0.417786H11.9214L7.00269 8.93602Z" fill="#004B8D"/>
<path id="Vector_3" d="M16.9072 5.80596L15.0739 0.417786H17.712L18.5169 3.59256L20.5962 0.417786H23.6815L19.523 5.7836L18.8746 8.93602H16.2588L16.9072 5.80596Z" fill="#004B8D"/>
<path id="Vector_4" d="M29.9415 5.69414C29.785 6.56609 29.1143 9.13721 25.5595 9.13721C23.0778 9.13721 21.8928 7.52747 21.8928 5.24699C21.8928 2.49701 23.6144 0.194183 26.5208 0.194183C28.4212 0.194183 30.1204 1.02141 30.1651 3.57018H27.6834C27.7058 2.7653 27.3257 2.31815 26.5208 2.31815C25.0676 2.31815 24.531 3.99497 24.531 5.20228C24.531 5.91772 24.7099 6.99088 25.9172 6.99088C26.7444 6.99088 27.2139 6.43194 27.3704 5.67179L29.9415 5.69414Z" fill="#004B8D"/>
<path id="Vector_5" d="M31.4619 0.417786H34.1001L33.4741 3.36898H35.8664L36.4924 0.417786H39.1306L37.342 8.93602H34.7261L35.4192 5.56003H33.027L32.3115 8.93602H29.6957L31.4619 0.417786Z" fill="#004B8D"/>
<path id="Vector_6" d="M39.8236 0.417786H46.8663L46.4191 2.60883H41.9923L41.7688 3.65963H45.8825L45.4577 5.69417H41.344L41.1204 6.74498H45.6366L45.1895 8.93602H38.035L39.8236 0.417786Z" fill="#004B8D"/>
<path id="Vector_7" d="M48.6772 4.41979L46.7097 0.417786H49.5715L50.3987 2.63118L52.0979 0.417786H55.2056L51.6508 4.41979L53.73 8.93602H50.7788L49.8398 6.56612L47.85 8.93602H44.6305L48.6772 4.41979Z" fill="#004B8D"/>
<path id="Vector_8" d="M55.541 0.797844C55.541 0.484839 55.7646 0.238905 56.0776 0.238905C56.3682 0.238905 56.6142 0.484839 56.6142 0.797844C56.6142 1.11085 56.3906 1.35678 56.0776 1.35678C55.7869 1.35678 55.541 1.11085 55.541 0.797844ZM55.4292 0.797844C55.4292 1.17792 55.7198 1.44621 56.0776 1.44621C56.4353 1.44621 56.7259 1.17792 56.7259 0.797844C56.7259 0.440123 56.4353 0.149475 56.0776 0.149475C55.7198 0.149475 55.4292 0.440123 55.4292 0.797844ZM55.8316 1.17792H55.9434V0.864917H56.0552L56.2564 1.20028H56.3906L56.167 0.864917C56.2788 0.864917 56.3682 0.797845 56.3682 0.663699C56.3682 0.507196 56.2788 0.440123 56.0999 0.440123H55.8316V1.17792ZM55.9434 0.529554H56.0999C56.1894 0.529554 56.2564 0.551911 56.2564 0.641342C56.2564 0.753129 56.167 0.775487 56.0552 0.775487H55.9434V0.529554Z" fill="#004B8D"/>
</g>
</svg>
