<svg width="56" height="19" viewBox="0 0 56 19" fill="none" xmlns="http://www.w3.org/2000/svg">
<g id="Group 2">
<g id="Group">
<path id="Vector" d="M7.42685 8.9164V6.98544H13.8166C13.8898 7.37905 13.9251 7.77878 13.9219 8.17913C13.9219 9.58346 13.5357 11.374 12.2718 12.6028C11.043 13.9018 9.49824 14.5689 7.39174 14.5689C3.56493 14.5689 0.334961 11.4442 0.334961 7.61739C0.334961 3.79058 3.56493 0.630829 7.39174 0.630829C9.53335 0.630829 11.043 1.47343 12.2016 2.56179L10.8324 3.89591C10.1191 3.21524 9.22012 2.76132 8.24896 2.59154C7.27779 2.42175 6.27809 2.54373 5.37624 2.94205C4.47439 3.34037 3.71089 3.99714 3.18227 4.82933C2.65364 5.66152 2.38362 6.63176 2.40635 7.61739C2.40635 10.4261 4.61818 12.673 7.39174 12.673C9.21738 12.673 10.2706 11.9357 10.9377 11.2687C11.4643 10.742 11.8154 9.96966 11.9558 8.9164H7.42685Z" fill="#4285F4"/>
<path id="Vector_2" d="M23.6469 10.075C23.6469 12.673 21.6106 14.5689 19.1179 14.5689C16.6252 14.5689 14.624 12.673 14.624 10.075C14.624 7.477 16.6603 5.58115 19.1179 5.58115C21.5755 5.58115 23.6469 7.477 23.6469 10.075ZM21.6457 10.075C21.6457 8.46003 20.4871 7.37167 19.1179 7.37167C17.7487 7.37167 16.5901 8.46003 16.5901 10.075C16.5901 11.69 17.7838 12.8135 19.1179 12.8135C20.452 12.8135 21.6457 11.69 21.6457 10.075Z" fill="#EA4335"/>
<path id="Vector_3" d="M33.4772 10.075C33.4772 12.673 31.4409 14.5689 28.9482 14.5689C26.4555 14.5689 24.4543 12.673 24.4543 10.075C24.4543 7.477 26.4906 5.58115 28.9482 5.58115C31.4058 5.58115 33.4772 7.477 33.4772 10.075ZM31.476 10.075C31.476 8.46003 30.3174 7.37167 28.9482 7.37167C27.579 7.37167 26.4204 8.46003 26.4204 10.075C26.4204 11.69 27.6141 12.8135 28.9482 12.8135C30.2823 12.8135 31.476 11.69 31.476 10.075Z" fill="#FBBC04"/>
<path id="Vector_4" d="M42.8863 5.86201V13.9369C42.8863 17.2371 40.9203 18.6064 38.6031 18.6064C36.4264 18.6064 35.1274 17.1318 34.6359 15.9381L36.3562 15.2359C36.6722 15.9732 37.4094 16.8509 38.6031 16.8509C40.1128 16.8509 41.0256 15.903 41.0256 14.2178V13.5507H40.9554C40.6566 13.8853 40.2878 14.15 39.8752 14.326C39.4626 14.502 39.0163 14.5849 38.568 14.5689C36.3562 14.5689 34.2848 12.6028 34.2848 10.1101C34.2848 7.58232 36.3562 5.58115 38.568 5.58115C39.6564 5.58115 40.499 6.07266 40.9554 6.59929H41.0256V5.86201H42.8863ZM41.166 10.1101C41.166 8.53025 40.1128 7.37167 38.7436 7.37167C37.4094 7.37167 36.2509 8.53025 36.2509 10.1101C36.2509 11.6549 37.4094 12.8135 38.7436 12.8135C40.1128 12.8135 41.166 11.6549 41.166 10.1101Z" fill="#4285F4"/>
<path id="Vector_5" d="M44.2555 1.15747H46.2216V14.3231H44.2555V1.15747Z" fill="#34A853"/>
<path id="Vector_6" d="M53.8401 11.5496L55.3849 12.6028C54.8934 13.305 53.6997 14.5689 51.6283 14.5689C49.0654 14.5689 47.1696 12.6028 47.1696 10.075C47.1696 7.40678 49.1005 5.58115 51.4177 5.58115C53.7348 5.58115 54.8934 7.44189 55.2445 8.46003L55.4551 8.95155L49.4516 11.4442C49.908 12.3571 50.6102 12.8135 51.6283 12.8135C52.6465 12.8135 53.3135 12.322 53.8401 11.5496ZM49.1356 9.93458L53.138 8.28449C52.9273 7.72276 52.2603 7.33656 51.4879 7.33656C50.4697 7.33656 49.0654 8.21427 49.1356 9.93458Z" fill="#EA4335"/>
</g>
</g>
</svg>
