<svg width="91" height="19" viewBox="0 0 91 19" fill="none" xmlns="http://www.w3.org/2000/svg">
<g id="helpscout-logo 1" clip-path="url(#clip0_168_108)">
<g id="Group">
<path id="Vector" fill-rule="evenodd" clip-rule="evenodd" d="M25.0306 3.95421C25.7009 3.82203 26.3806 3.82203 27.0414 3.95421L27.0698 3.96368V15.0377L27.0414 15.0471C26.3712 15.1793 25.7009 15.1793 25.0306 15.0471L25.0022 15.0377V10.5438H20.4424V15.0377L20.4141 15.0471C20.0743 15.1132 19.7438 15.1509 19.4039 15.1509C19.064 15.1509 18.7336 15.1132 18.4032 15.0471L18.3749 15.0377V3.96357L18.4032 3.9541C19.0641 3.81256 19.7438 3.81256 20.4141 3.9541L20.4424 3.96357V8.77831H25.0022V3.96368L25.0306 3.95421ZM32.1205 7.06967C33.2912 7.06967 34.2542 7.44726 34.8867 8.14594C35.6042 8.94838 35.8969 10.1379 35.7364 11.6012V11.6389H30.1852C30.2041 13.1306 30.8556 13.8482 32.1678 13.8482C33.1118 13.8482 33.7538 13.3855 33.886 12.6114V12.5831H33.9143C34.5279 12.4981 35.0472 12.5358 35.6042 12.7246L35.6325 12.7341V12.7624C35.4909 14.0654 34.3581 15.3775 32.1489 15.3775C30.8556 15.3775 29.8642 14.9716 29.2128 14.1881C28.6086 13.4611 28.3065 12.432 28.3065 11.1103C28.3065 8.58015 29.732 7.06967 32.1205 7.06967ZM32.0829 8.5047C30.9122 8.5047 30.223 9.22221 30.1664 10.4777H33.8577C33.886 9.86416 33.735 9.35428 33.4045 9.005C33.0929 8.67455 32.6398 8.5047 32.0827 8.5047H32.0829ZM37.0959 3.95421C37.719 3.81266 38.3609 3.81266 38.9839 3.95421L39.0123 3.96368V15.0377L38.9839 15.0471C38.6724 15.1132 38.3515 15.1509 38.04 15.1509C37.7284 15.1509 37.4074 15.1132 37.0959 15.0471L37.0675 15.0377V3.96357L37.0959 3.95421ZM44.469 7.06967C46.7348 7.06967 48.0282 8.58962 48.0282 11.2331C48.0282 13.8198 46.7253 15.3681 44.5446 15.3681C43.761 15.3681 43.0624 15.1604 42.4015 14.745V18.4363L42.3732 18.4458C42.0616 18.5119 41.7406 18.5495 41.4291 18.5495C41.1176 18.5495 40.7965 18.5119 40.4852 18.4458L40.4567 18.4363V7.41896L40.485 7.40959C40.9477 7.26794 41.3347 7.26794 41.8068 7.40959L41.8257 7.41896L41.9389 8.00429C42.7602 7.39075 43.6383 7.06967 44.469 7.06967ZM42.3732 9.25041V13.2061C42.9303 13.5933 43.4778 13.782 44.0537 13.782C45.4037 13.782 46.1212 12.9041 46.1212 11.2614C46.1212 9.58086 45.3942 8.66518 44.0725 8.66518C43.4966 8.66518 42.9585 8.85398 42.3732 9.25052V9.25041ZM56.336 9.07109C57.8749 9.66589 59.4704 10.2795 59.4798 12.1393C59.4609 14.9433 56.8174 15.3681 55.2126 15.3681C53.5794 15.3681 52.3048 14.9433 51.5307 14.1124C50.9548 13.4989 50.681 12.7058 50.7376 11.809V11.7806L50.7659 11.7712C51.4268 11.6201 52.1066 11.6107 52.7768 11.7429L52.8051 11.7522V11.7806C52.7485 12.2809 52.8712 12.687 53.1639 13.0079C53.5604 13.4421 54.2591 13.6782 55.1748 13.6782C56.0056 13.6782 56.6286 13.4988 56.9874 13.1306C57.2328 12.8758 57.3555 12.5453 57.3462 12.1299C57.3273 11.3275 56.4304 11.0254 54.9388 10.5061C54.6367 10.4022 54.2874 10.2795 53.9287 10.1474L53.7587 10.0907C52.6636 9.6942 50.8227 9.0333 50.8415 7.04136C50.8698 5.03995 52.4842 3.84097 55.1653 3.84097H55.2127C56.657 3.85045 57.7993 4.24687 58.5075 5.00217C59.0833 5.60634 59.3664 6.41825 59.3193 7.3435V7.37181L59.291 7.38117C58.5734 7.54166 57.9127 7.56061 57.2612 7.42843L57.2329 7.41896V7.39075C57.2706 6.8432 57.1385 6.39941 56.8364 6.07854C56.4871 5.69148 55.8924 5.49321 55.1276 5.49321C54.3535 5.49321 53.7115 5.70095 53.3433 6.08791C53.0884 6.3429 52.9656 6.67324 52.9752 7.05094C53.0034 7.86285 53.9097 8.19319 55.4108 8.73138C55.7035 8.83525 56.0056 8.94849 56.336 9.07119V9.07109ZM64.3229 8.66518C62.9634 8.66518 62.3309 9.47709 62.3309 11.2142C62.3309 12.9512 62.9634 13.7631 64.3229 13.7631C64.6722 13.7631 65.8428 13.6781 66.0222 12.4697V12.4414H66.0505C66.6736 12.3282 67.2589 12.3659 67.7877 12.5453L67.816 12.5548V12.5831C67.7499 13.3006 67.4289 13.9709 66.9002 14.4618C66.2677 15.0565 65.3614 15.3681 64.2851 15.3681C61.7928 15.3681 60.4145 13.8953 60.4145 11.2236C60.4145 8.54237 61.8021 7.0602 64.3228 7.0602C65.3802 7.0602 66.2771 7.36234 66.9002 7.9382C67.4477 8.43861 67.7782 9.14665 67.8348 9.92078V9.94909L67.8065 9.95856C67.2495 10.1189 66.6641 10.1568 66.0505 10.0624H66.0222V10.034C65.9561 9.52424 65.6541 8.66518 64.3229 8.66518ZM72.6119 7.06967C75.0947 7.06967 76.4542 8.54248 76.4542 11.2331C76.4542 13.9047 75.0947 15.3775 72.6119 15.3775C70.1384 15.3775 68.7694 13.9048 68.7694 11.233C68.7694 8.55184 70.1289 7.06967 72.6119 7.06967ZM74.5849 11.2236C74.5849 9.5054 73.9429 8.66508 72.6119 8.66508C71.2618 8.66508 70.6386 9.47709 70.6386 11.2236C70.6386 12.9418 71.2807 13.7726 72.6119 13.7726C73.9429 13.7726 74.5849 12.9324 74.5849 11.2236ZM82.6662 7.41896C83.2987 7.25858 83.9313 7.25858 84.5544 7.41896L84.5827 7.42843V15.0377L84.5544 15.0471C84.1012 15.1698 83.6291 15.1698 83.176 15.0471L83.1571 15.0377L82.9683 14.169C82.0809 14.9904 81.2595 15.3586 80.306 15.3586C78.5405 15.3586 77.521 14.2824 77.521 12.3943V7.42843L77.5493 7.41896C78.1724 7.26794 78.8144 7.26794 79.4375 7.41896L79.4658 7.42843V11.96C79.4658 13.2061 79.8622 13.7349 80.7875 13.7349C81.4484 13.7349 82.0148 13.4894 82.6378 12.9513V7.42843L82.6662 7.41896ZM90.5302 13.5554C90.672 14.0936 90.672 14.6128 90.5208 15.1132L90.5114 15.1321H90.4925C89.9543 15.2359 89.4823 15.2925 89.067 15.2925C88.3967 15.2925 87.8869 15.1509 87.5282 14.8582C86.8673 14.3107 86.8107 13.3477 86.8107 12.4037L86.7917 9.01447H85.8193L85.81 8.98616C85.6873 8.45744 85.6873 7.92883 85.81 7.40959L85.8193 7.38117H86.7917L86.7729 5.28547L86.8012 5.27589C87.4243 5.13435 88.0663 5.13435 88.6894 5.27589L88.7177 5.28536V7.38117H90.2565L90.2659 7.40959C90.3698 7.92883 90.3698 8.45744 90.2659 8.9768L90.2565 9.005H88.7178V12.5358C88.7178 13.0079 88.8217 13.31 89.0293 13.4799C89.2937 13.6877 89.7279 13.7065 90.4832 13.5272L90.5209 13.5177L90.5302 13.5554Z" fill="#213743"/>
<path id="Vector_2" fill-rule="evenodd" clip-rule="evenodd" d="M6.38322 5.93075L1.19487 11.2305C0.546459 10.568 0.141095 9.65716 0.0599365 8.58057C0.0599365 7.58697 0.546351 6.59326 1.19487 5.93075L6.46438 0.631104C7.11289 1.29361 7.51815 2.28722 7.51815 3.28093C7.51815 4.27464 7.03184 5.26835 6.38332 5.93075H6.38322ZM8.66556 13.2688L13.9107 7.96908C14.5665 8.71437 14.9764 9.6253 14.9764 10.6189C14.9764 11.6126 14.4845 12.6063 13.8289 13.2688L8.58354 18.5685C7.92792 17.906 7.51815 16.9123 7.51815 15.9187C7.51815 14.9249 8.00984 13.9312 8.66556 13.2688ZM8.53694 5.93075L10.0856 4.38163L13.9167 0.631104C14.5687 1.28339 14.9762 2.26181 14.9762 3.24024C14.9762 4.21867 14.4873 5.19698 13.8351 5.84927L10.0856 9.59979L8.53694 11.1489L6.33629 13.3503L4.7876 14.8994L1.11963 18.5685C0.467453 17.9162 0.0599365 16.9378 0.0599365 15.9593C0.0599365 14.9809 0.549042 14.0025 1.20111 13.3503L4.86908 9.68127L6.33618 8.13215L8.53694 5.93075Z" fill="#1292EE"/>
</g>
</g>
<defs>
<clipPath id="clip0_168_108">
<rect width="90.6309" height="17.9755" fill="white" transform="translate(0.0599365 0.631104)"/>
</clipPath>
</defs>
</svg>
