<svg width="60" height="40" viewBox="0 0 35 21" fill="none" xmlns="http://www.w3.org/2000/svg">
                    <path d="M29.919 18.8525V10.3398C29.919 10.3398 23.3522 11.1772 17.6981 13.9809C12.044 11.1772 5.47719 10.3398 5.47719 10.3398V18.8525C3.55024 19.2839 1.99094 19.804 0.938721 20.4003C4.48836 19.2839 10.6622 18.5354 17.6854 18.5354C24.7086 18.5354 30.8825 19.2712 34.4321 20.4003C33.3926 19.804 31.8459 19.2839 29.919 18.8525Z" fill="#1C1D4E"></path>
                    <path d="M7.26465 9.42639V10.6316C9.59727 11.0756 13.8568 12.0652 17.6981 13.9809C13.1596 10.4159 7.26465 9.42639 7.26465 9.42639Z" fill="#313273"></path>
                    <path d="M28.1442 9.42639C28.1442 9.42639 22.2493 10.4159 17.7108 13.9809C21.552 12.0779 25.8116 11.0756 28.1442 10.6316V9.42639Z" fill="#313273"></path>
                    <path d="M17.7108 9.54053C17.4699 10.0734 17.1023 10.5428 16.6713 10.9107L17.6981 12.6995L18.7503 10.9107C18.3066 10.5428 17.9517 10.0734 17.7108 9.54053Z" fill="#313274"></path>
                    <path d="M14.5922 8.20848C15.2768 8.20848 15.8473 7.65027 15.8473 6.9525C15.8473 6.26743 15.2895 5.69653 14.5922 5.69653C13.9076 5.69653 13.3372 6.25474 13.3372 6.9525C13.3372 7.65027 13.895 8.20848 14.5922 8.20848ZM14.1739 6.07713C14.4401 6.07713 14.6556 6.2928 14.6556 6.55922C14.6556 6.82564 14.4401 7.04131 14.1739 7.04131C13.9076 7.04131 13.6921 6.82564 13.6921 6.55922C13.6921 6.2928 13.9076 6.07713 14.1739 6.07713Z" fill="#313274"></path>
                    <path d="M19.5618 6.9525C19.5618 7.63758 20.1196 8.20848 20.8041 8.20848C21.4887 8.20848 22.0592 7.65027 22.0592 6.9525C22.0592 6.26743 21.5014 5.69653 20.8041 5.69653C20.1322 5.70922 19.5618 6.26743 19.5618 6.9525ZM20.9563 6.55922C20.9563 6.82564 20.7408 7.04131 20.4745 7.04131C20.2083 7.04131 19.9928 6.82564 19.9928 6.55922C19.9928 6.2928 20.2083 6.07713 20.4745 6.07713C20.7408 6.07713 20.9563 6.2928 20.9563 6.55922Z" fill="#313274"></path>
                    <path d="M12.1962 9.41369C12.8174 10.0226 13.6668 10.3906 14.5922 10.3906C15.9614 10.3906 17.153 9.57861 17.7108 8.41145C18.256 9.57861 19.4476 10.3906 20.8295 10.3906C21.7676 10.3906 22.6043 10.01 23.2255 9.41369C23.4917 9.79428 23.7199 10.2003 23.91 10.6189C24.6834 10.3271 25.3933 10.1114 26.0145 9.93384C25.6088 9.09652 24.9749 8.34801 24.1763 7.71368C24.227 7.47264 24.265 7.20622 24.265 6.95249C24.265 6.44503 24.1509 5.96294 23.9481 5.51891C23.7072 4.80846 23.3396 4.14876 22.8705 3.56517L22.8451 0.177856L20.0308 1.49726C19.2955 1.21816 18.5095 1.0786 17.7108 1.0786C16.9122 1.0786 16.1262 1.21816 15.3909 1.49726L12.5639 0.177856L12.5385 3.56517C12.0821 4.14876 11.7145 4.79577 11.4736 5.49353C11.2708 5.93756 11.144 6.43234 11.144 6.95249C11.144 7.21891 11.1694 7.47264 11.2328 7.71368C10.4341 8.34801 9.8129 9.09652 9.40723 9.93384C10.0157 10.1114 10.7383 10.3398 11.5117 10.6189C11.7018 10.2003 11.93 9.79428 12.1962 9.41369ZM23.5297 6.95249C23.5297 8.44951 22.3127 9.66742 20.8168 9.66742C19.3209 9.66742 18.1038 8.44951 18.1038 6.95249C18.1038 5.45547 19.3209 4.23756 20.8168 4.23756C22.3127 4.25025 23.5297 5.46816 23.5297 6.95249ZM17.6982 1.80174C19.4223 1.80174 20.9943 2.55025 22.0718 3.75547C21.6788 3.60323 21.2478 3.51443 20.8041 3.51443C19.435 3.51443 18.2433 4.32637 17.6855 5.49353C17.1404 4.32637 15.9487 3.51443 14.5669 3.51443C14.1232 3.51443 13.6921 3.60323 13.3118 3.75547C14.4148 2.55025 15.9741 1.80174 17.6982 1.80174ZM14.5922 4.25025C16.0882 4.25025 17.3052 5.46816 17.3052 6.96518C17.3052 8.46219 16.0882 9.6801 14.5922 9.6801C13.0963 9.6801 11.8793 8.46219 11.8793 6.96518C11.8793 5.46816 13.0963 4.25025 14.5922 4.25025Z" fill="#313274"></path>
                </svg>