<svg width="63" height="21" viewBox="0 0 63 21" fill="none" xmlns="http://www.w3.org/2000/svg">
<g id="intuit">
<path id="Vector" d="M54.8083 16.4831C54.8083 16.3281 54.6791 16.2505 54.5241 16.2505H54.2657V17.0257H54.3949V16.7157H54.4982L54.6791 17.0257H54.8341L54.6274 16.6898C54.7308 16.664 54.8083 16.5865 54.8083 16.4831ZM54.369 16.5865V16.3797H54.4982C54.5757 16.3797 54.6532 16.4056 54.6532 16.4831C54.6532 16.5865 54.5499 16.5865 54.4724 16.5865H54.369ZM54.4982 15.9663C54.1106 15.9663 53.8005 16.2764 53.8005 16.664C53.8005 17.0516 54.1106 17.3358 54.4982 17.3358C54.8858 17.3358 55.1959 17.0257 55.1959 16.664C55.1959 16.2764 54.8858 15.9663 54.4982 15.9663ZM54.4982 17.2325C54.1881 17.2325 53.9297 16.9741 53.9297 16.664C53.9297 16.3539 54.1881 16.0955 54.4982 16.0955C54.8083 16.0955 55.0667 16.3539 55.0667 16.664C55.0925 16.9741 54.8341 17.2325 54.4982 17.2325Z" fill="#0077C5"/>
<path id="Vector_2" d="M7.67651 7.93015H10.0021V17.2325H7.67651V7.93015ZM17.4956 7.64591C16.1261 7.64591 15.015 8.47278 14.6016 9.40302H14.5499V7.90431H12.3535V17.2066H14.6791V12.1162C14.6791 10.8759 15.3768 9.58389 16.8496 9.58389C18.3483 9.58389 18.6067 10.9534 18.6067 12.0645V17.2325H20.9323V11.4185C20.9323 9.53222 19.9246 7.64591 17.4956 7.64591ZM37.5214 13.0464C37.5214 14.2867 36.8238 15.5787 35.3509 15.5787C33.8522 15.5787 33.5938 14.2092 33.5938 13.0981V7.93015H31.2682V13.7441C31.2682 15.6304 32.276 17.4909 34.7049 17.4909C36.0744 17.4909 37.1855 16.664 37.599 15.7338H37.6506V17.2325H39.847V7.93015H37.5214V13.0464ZM42.2243 17.2325H44.5498V7.93015H42.2243V17.2325ZM22.1209 9.97149H24.7308V17.2325H27.0563V9.97149H29.6661V7.90431H22.1209V9.97149ZM25.8935 6.71568C26.6687 6.71568 27.2889 6.09553 27.2889 5.32033C27.2889 4.54514 26.6687 3.92499 25.8935 3.92499C25.1183 3.92499 24.4982 4.54514 24.4982 5.32033C24.4982 6.09553 25.1183 6.71568 25.8935 6.71568ZM46.1777 7.93015V9.99733H48.7876V17.2583H51.1131V9.97149H53.723V7.90431H46.1777V7.93015ZM49.9504 6.71568C50.7255 6.71568 51.3457 6.09553 51.3457 5.32033C51.3457 4.54514 50.7255 3.92499 49.9504 3.92499C49.1752 3.92499 48.555 4.54514 48.555 5.32033C48.555 6.06969 49.1752 6.71568 49.9504 6.71568Z" fill="#0077C5"/>
</g>
</svg>
