<svg width="98" height="16" viewBox="0 0 98 16" fill="none" xmlns="http://www.w3.org/2000/svg">
<g id="Layer 2">
<g id="Layer 1">
<path id="Vector" fill-rule="evenodd" clip-rule="evenodd" d="M24.1319 5.31603C23.1419 5.31304 22.1822 5.65759 21.4202 6.2896V5.41404H18.9438V15.0582H21.5182V8.89667C21.7951 8.53641 22.1486 8.24224 22.5532 8.03543C22.9578 7.82863 23.4033 7.71438 23.8574 7.70094C24.2087 7.68177 24.5601 7.73515 24.8898 7.85776V5.38137C24.6397 5.33664 24.386 5.31477 24.1319 5.31603Z" fill="#293E40"/>
<path id="Vector_2" fill-rule="evenodd" clip-rule="evenodd" d="M1.68098 12.1179C2.41224 12.7345 3.33808 13.0724 4.29458 13.0719C4.98719 13.0719 5.52298 12.7321 5.52298 12.2552C5.54258 10.8046 0.890364 11.3404 0.890364 8.21713C0.890364 6.36801 2.67415 5.21802 4.57555 5.21802C5.73623 5.21672 6.87192 5.55515 7.84255 6.19159L6.61416 8.07338C6.08105 7.67261 5.43806 7.4446 4.77157 7.41998C4.05936 7.41998 3.46476 7.70095 3.46476 8.19753C3.46476 9.45206 8.11698 8.95548 8.11698 12.2944C8.11698 14.1239 6.31359 15.2608 4.29458 15.2608C2.90248 15.2392 1.55209 14.7823 0.432983 13.954L1.68098 12.1179Z" fill="#293E40"/>
<path id="Vector_3" fill-rule="evenodd" clip-rule="evenodd" d="M17.8462 10.1447C17.8462 7.45918 15.9644 5.21802 13.305 5.21802C10.4562 5.21802 8.6332 7.56373 8.6332 10.2427C8.60338 10.9107 8.71321 11.5776 8.95568 12.2008C9.19814 12.824 9.56792 13.3898 10.0414 13.862C10.5148 14.3343 11.0816 14.7026 11.7054 14.9434C12.3292 15.1843 12.9964 15.2924 13.6644 15.2608C14.4026 15.2664 15.1337 15.1156 15.8094 14.8183C16.4851 14.521 17.0902 14.0839 17.5848 13.5358L16.1146 12.0526C15.8075 12.3918 15.435 12.6655 15.0197 12.8575C14.6043 13.0495 14.1544 13.1557 13.6971 13.1699C13.0514 13.1961 12.4203 12.9735 11.934 12.548C11.4476 12.1224 11.1432 11.5264 11.0835 10.883H17.7808C17.8237 10.6392 17.8456 10.3922 17.8462 10.1447ZM11.2468 8.99468C11.3395 8.51725 11.5958 8.08707 11.9714 7.77819C12.3471 7.46931 12.8187 7.30105 13.305 7.30237C13.7743 7.3024 14.2272 7.47478 14.5777 7.78676C14.9282 8.09874 15.152 8.52859 15.2064 8.99468H11.2468Z" fill="#293E40"/>
<path id="Vector_4" fill-rule="evenodd" clip-rule="evenodd" d="M31.0252 11.3011L33.6584 5.414H36.3374L31.9138 15.0582H30.1366L25.7196 5.414H28.392L31.0252 11.3011Z" fill="#293E40"/>
<path id="Vector_5" fill-rule="evenodd" clip-rule="evenodd" d="M38.4936 0.885949C38.8194 0.8911 39.1364 0.992414 39.4048 1.17716C39.6731 1.36191 39.881 1.62186 40.0021 1.92434C40.1232 2.22682 40.1522 2.55835 40.0855 2.87728C40.0188 3.19621 39.8594 3.48832 39.6272 3.7169C39.395 3.94548 39.1004 4.10035 38.7804 4.16205C38.4605 4.22374 38.1295 4.18952 37.8289 4.06366C37.5284 3.93781 37.2717 3.72595 37.0912 3.4547C36.9107 3.18344 36.8144 2.86489 36.8143 2.53905C36.8143 2.31975 36.8579 2.10263 36.9426 1.90034C37.0273 1.69806 37.1514 1.51465 37.3077 1.36079C37.464 1.20694 37.6493 1.08572 37.8529 1.0042C38.0565 0.92268 38.2743 0.882482 38.4936 0.885949Z" fill="#293E40"/>
<path id="Vector_6" d="M39.7808 5.414H37.2064V15.0582H39.7808V5.414Z" fill="#293E40"/>
<path id="Vector_7" fill-rule="evenodd" clip-rule="evenodd" d="M50.4312 13.0915C49.9438 13.7884 49.2896 14.352 48.5283 14.731C47.767 15.1099 46.9229 15.2921 46.0731 15.2608C44.7422 15.2608 43.4658 14.7321 42.5247 13.791C41.5836 12.8499 41.0549 11.5736 41.0549 10.2427C41.0549 8.91178 41.5836 7.6354 42.5247 6.69432C43.4658 5.75324 44.7422 5.22455 46.0731 5.22455C46.852 5.22185 47.6212 5.39702 48.3221 5.73673C49.023 6.07643 49.6371 6.57169 50.1176 7.18475L48.3142 8.72678C48.059 8.37542 47.7252 8.0885 47.3395 7.88885C46.9539 7.68921 46.5269 7.58235 46.0927 7.57679C45.7467 7.57677 45.4041 7.64544 45.0849 7.77882C44.7656 7.9122 44.476 8.10765 44.2329 8.35381C43.9898 8.59998 43.798 8.89197 43.6685 9.21285C43.5391 9.53373 43.4747 9.87711 43.479 10.2231C43.4688 10.5724 43.5308 10.9201 43.661 11.2444C43.7912 11.5688 43.9869 11.8627 44.2358 12.108C44.4848 12.3533 44.7817 12.5446 45.1079 12.67C45.4341 12.7953 45.7827 12.8521 46.1319 12.8367C46.5901 12.828 47.0392 12.7073 47.4401 12.4853C47.841 12.2632 48.1815 11.9464 48.4318 11.5625L50.4312 13.0915Z" fill="#293E40"/>
<path id="Vector_8" fill-rule="evenodd" clip-rule="evenodd" d="M59.7814 13.5293C59.2868 14.0773 58.6817 14.5144 58.0059 14.8117C57.3302 15.1091 56.5992 15.2599 55.861 15.2543C55.1938 15.2847 54.5276 15.1761 53.9047 14.9353C53.2818 14.6945 52.7158 14.3268 52.2427 13.8555C51.7695 13.3842 51.3996 12.8196 51.1563 12.1976C50.9131 11.5757 50.8019 10.9099 50.8298 10.2427C50.8298 7.56373 52.6528 5.21802 55.5081 5.21802C58.1609 5.21802 60.0427 7.45918 60.0427 10.1447C60.0442 10.392 60.0245 10.639 59.9839 10.883H53.3062C53.3659 11.5264 53.6703 12.1224 54.1566 12.548C54.643 12.9735 55.2741 13.1961 55.9198 13.1699C56.3771 13.1557 56.827 13.0495 57.2424 12.8575C57.6577 12.6655 58.0302 12.3918 58.3373 12.0526L59.7814 13.5293ZM57.3899 8.99468C57.3262 8.53246 57.0998 8.10811 56.7513 7.79791C56.4027 7.48771 55.955 7.312 55.4885 7.30237C55.0011 7.29952 54.5279 7.46709 54.1509 7.7761C53.7739 8.08511 53.5167 8.51614 53.4238 8.99468H57.3899Z" fill="#293E40"/>
<path id="Vector_9" fill-rule="evenodd" clip-rule="evenodd" d="M61.0425 15.0582V5.414H63.5189V6.19155C64.2823 5.5576 65.2447 5.2129 66.237 5.21798C66.8711 5.21616 67.4977 5.35395 68.0725 5.62159C68.6473 5.88922 69.1561 6.28012 69.5628 6.76654C70.2162 7.52449 70.556 8.49806 70.556 10.1446V15.0582H67.9751V9.94861C68.0108 9.62401 67.9787 9.29553 67.8808 8.98398C67.783 8.67243 67.6215 8.38459 67.4066 8.13868C67.013 7.77529 66.4914 7.58264 65.9561 7.6029C65.5035 7.61605 65.0594 7.72955 64.656 7.9352C64.2526 8.14086 63.8999 8.43353 63.6234 8.79209V15.0582H61.0425Z" fill="#293E40"/>
<path id="Vector_10" fill-rule="evenodd" clip-rule="evenodd" d="M77.1815 5.21802C76.0522 5.2167 74.9487 5.55444 74.0136 6.1875C73.0785 6.82057 72.3551 7.71979 71.9369 8.76871C71.5187 9.81764 71.4251 10.968 71.6682 12.0707C71.9113 13.1734 72.4798 14.1778 73.3002 14.9537C73.493 15.1375 73.7451 15.2464 74.011 15.2608C74.277 15.2752 74.5394 15.1941 74.7508 15.0321C75.4446 14.515 76.2868 14.2358 77.1521 14.2358C78.0173 14.2358 78.8595 14.515 79.5533 15.0321C79.7665 15.1937 80.0304 15.2739 80.2975 15.2584C80.5646 15.2428 80.8174 15.1324 81.0104 14.9472C81.8253 14.1739 82.3907 13.1749 82.6341 12.0781C82.8774 10.9814 82.7877 9.83698 82.3763 8.79161C81.9648 7.74624 81.2506 6.84759 80.325 6.21088C79.3995 5.57418 78.3048 5.22845 77.1815 5.21802ZM77.1815 13.6665C76.8107 13.6764 76.4417 13.6107 76.0972 13.4733C75.7526 13.3359 75.4396 13.1298 75.1773 12.8675C74.9151 12.6052 74.7089 12.2923 74.5716 11.9477C74.4342 11.6031 74.3685 11.2342 74.3784 10.8634C74.36 10.4835 74.419 10.1038 74.5518 9.74733C74.6845 9.39088 74.8883 9.0651 75.1507 8.78973C75.4131 8.51436 75.7287 8.29514 76.0783 8.14535C76.4279 7.99556 76.8043 7.91833 77.1847 7.91833C77.5651 7.91833 77.9415 7.99556 78.2911 8.14535C78.6408 8.29514 78.9564 8.51436 79.2188 8.78973C79.4812 9.0651 79.6849 9.39088 79.8177 9.74733C79.9504 10.1038 80.0094 10.4835 79.9911 10.8634C80.001 11.2348 79.9351 11.6043 79.7973 11.9493C79.6596 12.2943 79.4528 12.6076 79.1899 12.8699C78.9269 13.1323 78.6131 13.3383 78.2678 13.4753C77.9224 13.6122 77.5528 13.6773 77.1815 13.6665Z" fill="#81B5A1"/>
<path id="Vector_11" fill-rule="evenodd" clip-rule="evenodd" d="M87.8646 15.0582H85.9436L82.1212 5.414H84.6891L86.7865 10.9287L88.8447 5.414H90.9944L93.033 10.9287L95.1435 5.414H97.7179L93.889 15.0582H91.9745L89.9163 9.56963L87.8646 15.0582Z" fill="#293E40"/>
<path id="Vector_12" d="M96.3065 13.8363V14.0454H95.9798V15.0582H95.7445V14.0454H95.4178V13.8363H96.3065Z" fill="#293E40"/>
<path id="Vector_13" d="M97.1037 14.5681L97.548 13.8363H97.7179V15.0582H97.4827V14.3721L97.1886 14.8556H97.0188L96.7313 14.3721V15.0582H96.4895V13.8363H96.6594L97.1037 14.5681Z" fill="#293E40"/>
</g>
</g>
</svg>
