<svg width="73" height="37" viewBox="0 0 73 37" fill="none" xmlns="http://www.w3.org/2000/svg">
<g id="Salesforce">
<rect width="71.9019" height="35.951" transform="translate(0.938721 0.0759277)" fill="white"/>
<path id="Vector" d="M34.0123 8.68835C35.1184 7.54266 36.6592 6.81837 38.358 6.81837C40.623 6.81837 42.5852 8.08258 43.6387 9.95256C44.5473 9.54433 45.5613 9.32046 46.628 9.32046C50.7104 9.32046 54.0026 12.6522 54.0026 16.7609C54.0026 20.8695 50.6972 24.2013 46.628 24.2013C46.1276 24.2013 45.6404 24.1486 45.1794 24.0564C44.2576 25.7025 42.493 26.8219 40.465 26.8219C39.6222 26.8219 38.8189 26.6243 38.1078 26.2819C37.1728 28.4811 34.9868 30.0351 32.4452 30.0351C29.7982 30.0351 27.5332 28.3626 26.664 26.0054C26.2821 26.0844 25.8871 26.1239 25.492 26.1239C22.3315 26.1239 19.7767 23.5428 19.7767 20.3428C19.7767 18.2094 20.9224 16.3395 22.6344 15.3386C22.2788 14.5353 22.0813 13.6398 22.0813 12.6917C22.0681 9.04391 25.0574 6.06775 28.7184 6.06775C30.8781 6.06775 32.8007 7.09492 34.0123 8.68835Z" fill="#00A1E0"/>
<path id="Vector_2" d="M24.7283 18.4991L24.8732 18.1172C24.8995 18.0514 24.939 18.0777 24.9653 18.0909C25.0049 18.1172 25.0312 18.1304 25.0839 18.1699C25.4921 18.4333 25.874 18.4333 25.9925 18.4333C26.2954 18.4333 26.4929 18.2753 26.4929 18.0514V18.0382C26.4929 17.8012 26.2032 17.709 25.8608 17.6037L25.7818 17.5773C25.3209 17.4456 24.8205 17.2481 24.8205 16.6687V16.6555C24.8205 16.1024 25.2682 15.7073 25.9135 15.7073H25.9793C26.3612 15.7073 26.7168 15.8127 26.9802 15.9839C27.0065 15.9971 27.0329 16.0234 27.0197 16.0629C27.0065 16.1024 26.888 16.4053 26.8748 16.4448C26.8485 16.5106 26.7826 16.4711 26.7826 16.4711C26.5456 16.3394 26.1901 16.2473 25.8872 16.2473C25.6106 16.2473 25.4394 16.3921 25.4394 16.5897V16.6028C25.4394 16.8267 25.7423 16.932 26.0847 17.0374L26.1505 17.0506C26.6115 17.1954 27.0987 17.393 27.0987 17.9592V17.9724C27.0987 18.5782 26.6641 18.9469 25.9662 18.9469C25.6238 18.9469 25.2946 18.8942 24.939 18.7098C24.8732 18.6703 24.8073 18.644 24.7415 18.5913C24.7283 18.565 24.702 18.5518 24.7283 18.4991ZM35 18.4991L35.1449 18.1172C35.1712 18.0514 35.2239 18.0777 35.237 18.0909C35.2766 18.1172 35.3029 18.1304 35.3556 18.1699C35.7638 18.4333 36.1457 18.4333 36.2642 18.4333C36.5671 18.4333 36.7646 18.2753 36.7646 18.0514V18.0382C36.7646 17.8012 36.4749 17.709 36.1325 17.6037L36.0535 17.5773C35.5926 17.4456 35.0922 17.2481 35.0922 16.6687V16.6555C35.0922 16.1024 35.5399 15.7073 36.1852 15.7073H36.251C36.6329 15.7073 36.9885 15.8127 37.2519 15.9839C37.2782 15.9971 37.3046 16.0234 37.2914 16.0629C37.2782 16.1024 37.1597 16.4053 37.1465 16.4448C37.1202 16.5106 37.0543 16.4711 37.0543 16.4711C36.8173 16.3394 36.4617 16.2473 36.1589 16.2473C35.8823 16.2473 35.7111 16.3921 35.7111 16.5897V16.6028C35.7111 16.8267 36.014 16.932 36.3564 17.0374L36.4222 17.0506C36.8831 17.1954 37.3704 17.393 37.3704 17.9592V17.9724C37.3704 18.5782 36.9358 18.9469 36.2379 18.9469C35.8955 18.9469 35.5663 18.8942 35.2107 18.7098C35.1449 18.6703 35.079 18.644 35.0132 18.5913C35.0132 18.565 34.9868 18.5518 35 18.4991ZM42.6116 16.695C42.6643 16.8925 42.7038 17.1032 42.7038 17.3271C42.7038 17.551 42.6774 17.7617 42.6116 17.9592C42.5589 18.1568 42.4667 18.3279 42.3482 18.4728C42.2297 18.6177 42.0717 18.7362 41.9005 18.8152C41.7161 18.8942 41.5054 18.9337 41.2684 18.9337C41.0313 18.9337 40.8206 18.8942 40.6363 18.8152C40.4519 18.7362 40.307 18.6177 40.1885 18.4728C40.07 18.3279 39.9778 18.1568 39.9251 17.9592C39.8725 17.7617 39.833 17.551 39.833 17.3271C39.833 17.1032 39.8593 16.8925 39.9251 16.695C39.9778 16.4975 40.07 16.3263 40.1885 16.1814C40.307 16.0366 40.4651 15.918 40.6363 15.839C40.8206 15.76 41.0313 15.7073 41.2684 15.7073C41.5054 15.7073 41.7161 15.7468 41.9005 15.839C42.0848 15.918 42.2297 16.0366 42.3482 16.1814C42.4667 16.3263 42.5589 16.4975 42.6116 16.695ZM42.019 17.3139C42.019 16.9716 41.9532 16.7082 41.8346 16.5238C41.7161 16.3394 41.5186 16.2473 41.2684 16.2473C41.005 16.2473 40.8206 16.3394 40.7021 16.5238C40.5836 16.7082 40.5177 16.9716 40.5177 17.3139C40.5177 17.6563 40.5836 17.9197 40.7021 18.1172C40.8206 18.3016 41.005 18.3938 41.2684 18.3938C41.5317 18.3938 41.7161 18.3016 41.8346 18.1172C41.9663 17.9329 42.019 17.6563 42.019 17.3139ZM47.4314 18.3016L47.5762 18.6967C47.5894 18.7494 47.5499 18.7625 47.5499 18.7625C47.326 18.8547 47.0232 18.9074 46.7203 18.9074C46.2067 18.9074 45.8248 18.7625 45.5614 18.4728C45.298 18.1831 45.1663 17.788 45.1663 17.3008C45.1663 17.0769 45.1927 16.8662 45.2585 16.6687C45.3244 16.4711 45.4166 16.2999 45.5482 16.1551C45.6799 16.0102 45.838 15.8917 46.0223 15.8127C46.2067 15.7337 46.4306 15.681 46.6808 15.681C46.852 15.681 46.9968 15.6942 47.1153 15.7073C47.247 15.7337 47.4314 15.7732 47.5104 15.8127C47.5236 15.8127 47.5631 15.839 47.5499 15.8785C47.4972 16.0366 47.4577 16.1419 47.4051 16.2736C47.3787 16.3394 47.3392 16.3131 47.3392 16.3131C47.1417 16.2473 46.9573 16.2209 46.7203 16.2209C46.4306 16.2209 46.2067 16.3131 46.075 16.5106C45.9301 16.695 45.8511 16.9452 45.8511 17.2876C45.8511 17.6563 45.9433 17.9197 46.1013 18.0909C46.2594 18.2621 46.4832 18.3411 46.7729 18.3411C46.8915 18.3411 46.9968 18.3279 47.089 18.3148C47.1812 18.3016 47.2734 18.2753 47.3655 18.2358C47.3524 18.2621 47.4051 18.2489 47.4314 18.3016ZM50.4207 16.5765C50.5524 17.0242 50.4866 17.4061 50.4734 17.4325C50.4734 17.4851 50.4207 17.4851 50.4207 17.4851H48.4322C48.4454 17.788 48.5112 17.9987 48.6693 18.1436C48.8141 18.2884 49.038 18.3806 49.354 18.3806C49.8281 18.3806 50.0257 18.2884 50.1705 18.2358C50.1705 18.2358 50.2232 18.2226 50.2495 18.2753L50.3812 18.644C50.4075 18.7098 50.3812 18.723 50.368 18.7362C50.2495 18.802 49.9466 18.9337 49.3672 18.9337C49.0907 18.9337 48.8405 18.8942 48.6429 18.8152C48.4454 18.7362 48.2742 18.6308 48.1425 18.486C48.0108 18.3411 47.9186 18.1699 47.8528 17.9856C47.7869 17.788 47.7606 17.5773 47.7606 17.3534C47.7606 17.1296 47.7869 16.9189 47.8528 16.7213C47.9055 16.5238 47.9976 16.3526 48.1162 16.2078C48.2347 16.0629 48.3927 15.9444 48.5771 15.8654C48.7614 15.7732 48.9853 15.7337 49.2355 15.7337C49.4462 15.7337 49.6438 15.7732 49.8018 15.8522C49.9203 15.9049 50.052 15.9971 50.1837 16.1419C50.2495 16.1946 50.368 16.3921 50.4207 16.5765ZM48.4454 16.9979H49.8545C49.8413 16.8135 49.8018 16.6555 49.7228 16.5238C49.6042 16.3394 49.4331 16.2341 49.1697 16.2341C48.9063 16.2341 48.7219 16.3394 48.6034 16.5238C48.5244 16.6423 48.4849 16.8004 48.4454 16.9979ZM34.5259 16.5765C34.6576 17.0242 34.5918 17.4061 34.5918 17.4325C34.5918 17.4851 34.5391 17.4851 34.5391 17.4851H32.5506C32.5638 17.788 32.6296 17.9987 32.7876 18.1436C32.9325 18.2884 33.1564 18.3806 33.4724 18.3806C33.9465 18.3806 34.144 18.2884 34.2889 18.2358C34.2889 18.2358 34.3416 18.2226 34.3679 18.2753L34.4996 18.644C34.5259 18.7098 34.4996 18.723 34.4864 18.7362C34.3679 18.802 34.065 18.9337 33.4856 18.9337C33.209 18.9337 32.9588 18.8942 32.7613 18.8152C32.5638 18.7362 32.3926 18.6308 32.2609 18.486C32.1292 18.3411 32.037 18.1699 31.9712 17.9856C31.9053 17.788 31.879 17.5773 31.879 17.3534C31.879 17.1296 31.9053 16.9189 31.9712 16.7213C32.0238 16.5238 32.116 16.3526 32.2345 16.2078C32.3531 16.0629 32.5111 15.9444 32.6955 15.8654C32.8798 15.7732 33.1037 15.7337 33.3539 15.7337C33.5646 15.7337 33.7621 15.7732 33.9202 15.8522C34.0387 15.9049 34.1704 15.9971 34.3021 16.1419C34.3547 16.1946 34.4864 16.3921 34.5259 16.5765ZM32.5506 16.9979H33.9728C33.9597 16.8135 33.9202 16.6555 33.8411 16.5238C33.7226 16.3394 33.5514 16.2341 33.2881 16.2341C33.0247 16.2341 32.8403 16.3394 32.7218 16.5238C32.6296 16.6423 32.5901 16.8004 32.5506 16.9979ZM29.0609 16.8925C29.0609 16.8925 29.2189 16.9057 29.3901 16.932V16.853C29.3901 16.5897 29.3374 16.458 29.2321 16.379C29.1267 16.2999 28.9555 16.2473 28.7448 16.2473C28.7448 16.2473 28.2576 16.2473 27.8757 16.4448C27.8625 16.458 27.8493 16.458 27.8493 16.458C27.8493 16.458 27.7966 16.4711 27.7835 16.4316L27.6386 16.0497C27.6123 15.9971 27.6518 15.9707 27.6518 15.9707C27.8362 15.8259 28.2576 15.7468 28.2576 15.7468C28.4024 15.7205 28.6395 15.6942 28.7843 15.6942C29.1794 15.6942 29.4823 15.7864 29.693 15.9707C29.9037 16.1551 30.009 16.4448 30.009 16.853V18.6703C30.009 18.6703 30.009 18.723 29.9695 18.7362C29.9695 18.7362 29.8905 18.7625 29.8247 18.7757C29.7588 18.7889 29.5218 18.8415 29.3242 18.8679C29.1267 18.9074 28.9292 18.9205 28.7185 18.9205C28.5209 18.9205 28.3497 18.9074 28.1917 18.8679C28.0337 18.8284 27.902 18.7757 27.7835 18.6967C27.6781 18.6177 27.5859 18.5123 27.5201 18.3806C27.4543 18.2621 27.4279 18.1041 27.4279 17.9329C27.4279 17.7617 27.4674 17.6037 27.5333 17.472C27.5991 17.3403 27.7045 17.2349 27.823 17.1427C27.9415 17.0506 28.0864 16.9979 28.2312 16.9452C28.3892 16.9057 28.5473 16.8794 28.7185 16.8794C28.8765 16.8925 28.9818 16.8925 29.0609 16.8925ZM28.2707 18.2884C28.2707 18.2884 28.4551 18.4333 28.8502 18.407C29.1399 18.3938 29.3901 18.3411 29.3901 18.3411V17.4325C29.3901 17.4325 29.1399 17.393 28.8502 17.393C28.4419 17.393 28.2707 17.5378 28.2707 17.5378C28.1522 17.6168 28.0995 17.7485 28.0995 17.9197C28.0995 18.0251 28.1259 18.1172 28.1654 18.1831C28.1785 18.2094 28.1917 18.2358 28.2707 18.2884ZM45.061 15.8785C45.0478 15.9312 44.9425 16.2078 44.9161 16.2999C44.903 16.3394 44.8766 16.3526 44.8371 16.3526C44.8371 16.3526 44.7186 16.3263 44.6133 16.3263C44.5474 16.3263 44.4421 16.3394 44.3499 16.3658C44.2577 16.3921 44.1787 16.4448 44.0997 16.5106C44.0207 16.5765 43.968 16.6818 43.9285 16.8004C43.889 16.9189 43.8626 17.1164 43.8626 17.3271V18.802C43.8626 18.8415 43.8363 18.8679 43.7968 18.8679H43.27C43.2305 18.8679 43.2042 18.8415 43.2042 18.802V15.839C43.2042 15.7995 43.2305 15.7732 43.2569 15.7732H43.7705C43.81 15.7732 43.8231 15.7995 43.8231 15.839V16.0761C43.9021 15.9707 44.0338 15.8785 44.1523 15.8259C44.2709 15.7732 44.4157 15.7337 44.6659 15.7468C44.7976 15.76 44.9688 15.7864 44.9952 15.7995C45.0478 15.8127 45.0742 15.8259 45.061 15.8785ZM40.1754 14.509C40.1885 14.509 40.228 14.5353 40.2149 14.5748L40.0568 14.9962C40.0437 15.0226 40.0305 15.0489 39.9647 15.0226C39.9515 15.0226 39.9251 15.0094 39.8593 14.9962C39.8198 14.9831 39.754 14.9831 39.7013 14.9831C39.6223 14.9831 39.5564 14.9962 39.4906 15.0094C39.4247 15.0226 39.3721 15.0621 39.3194 15.1147C39.2578 15.1748 39.2086 15.2464 39.1745 15.3254C39.0955 15.5361 39.0692 15.76 39.0692 15.7732H39.7013C39.754 15.7732 39.7671 15.7995 39.7671 15.839L39.6881 16.2473C39.6749 16.3131 39.6223 16.2999 39.6223 16.2999H38.9638L38.5424 18.8415C38.4897 19.1049 38.4371 19.3288 38.3712 19.5131C38.3054 19.6975 38.2264 19.8292 38.1078 19.9609C38.0025 20.0794 37.884 20.1716 37.7391 20.2111C37.6074 20.2638 37.4362 20.2901 37.2519 20.2901C37.1597 20.2901 37.0675 20.2901 36.9622 20.2638C36.8831 20.2506 36.8436 20.2374 36.7778 20.2111C36.7515 20.1979 36.7383 20.1716 36.7515 20.1321C36.7646 20.0926 36.8831 19.7765 36.8963 19.7238C36.9227 19.6712 36.9622 19.6975 36.9622 19.6975C37.0017 19.7107 37.028 19.7238 37.0675 19.737C37.1202 19.7502 37.1729 19.7502 37.2255 19.7502C37.3177 19.7502 37.3967 19.737 37.4626 19.7107C37.5416 19.6843 37.5943 19.6317 37.6469 19.5658C37.6996 19.5 37.7391 19.4078 37.7918 19.2893C37.8313 19.1708 37.8708 18.9996 37.9103 18.802L38.3581 16.3131H37.9235C37.8708 16.3131 37.8576 16.2868 37.8576 16.2473L37.9367 15.839C37.9498 15.7732 38.0025 15.7864 38.0025 15.7864H38.4502L38.4766 15.6547C38.5424 15.2596 38.6741 14.9567 38.8716 14.7592C39.0692 14.5616 39.3589 14.4563 39.7144 14.4563C39.8198 14.4563 39.912 14.4695 39.991 14.4826C40.0437 14.4695 40.1095 14.4826 40.1754 14.509ZM31.2996 18.7889C31.2996 18.8284 31.2732 18.8547 31.2469 18.8547H30.7201C30.6806 18.8547 30.6675 18.8284 30.6675 18.7889V14.5616C30.6675 14.5353 30.6938 14.4958 30.7201 14.4958H31.2469C31.2864 14.4958 31.2996 14.5221 31.2996 14.5616V18.7889Z" fill="white"/>
</g>
</svg>
