<svg width="73" height="37" viewBox="0 0 73 37" fill="none" xmlns="http://www.w3.org/2000/svg">
<g id="SAP">
<rect width="71.9019" height="35.951" transform="translate(0.297729 0.0759277)" fill="white"/>
<path id="Vector" d="M15.5078 7.78558V28.3068H36.4708L56.9897 7.78789H15.5078V7.78558Z" fill="url(#paint0_linear_1_2868)"/>
<path id="Vector_2" d="M42.0604 26.2092V27.7397H42.2914V27.0755H42.5512L42.97 27.7397H43.2299L42.7823 27.0755C43.0059 27.0478 43.1865 26.9177 43.1865 26.6423C43.1865 26.3406 43.0019 26.2092 42.6379 26.2092H42.0604ZM42.2914 26.4113H42.609C42.7652 26.4113 42.9411 26.4367 42.9411 26.6279C42.9411 26.8668 42.763 26.8878 42.5657 26.8878H42.2914V26.4113ZM42.5802 25.6461C41.8474 25.6461 41.2229 26.2107 41.2229 26.9744C41.2229 27.7437 41.8473 28.3172 42.5802 28.3172C43.3028 28.3172 43.9085 27.7438 43.9085 26.9744C43.9085 26.2107 43.3028 25.6461 42.5802 25.6461ZM42.5802 25.8627C43.178 25.8627 43.6486 26.3456 43.6486 26.9744C43.6486 27.6139 43.178 28.0862 42.5802 28.0862C41.9721 28.0862 41.4828 27.6139 41.4828 26.9744C41.4828 26.3456 41.9721 25.8627 42.5802 25.8627Z" fill="#1870C5"/>
<path id="Vector_3" fill-rule="evenodd" clip-rule="evenodd" d="M40.3638 17.6047H39.4647V14.3164H40.3638C41.5642 14.3164 42.5197 14.7119 42.5197 15.9396C42.5197 17.2074 41.5642 17.6047 40.3638 17.6047ZM30.6865 19.9556C30.2106 19.9556 29.7643 19.8687 29.3785 19.7236L30.6736 15.6392H30.7013L31.9696 19.7347C31.5875 19.8715 31.1527 19.9556 30.6879 19.9556H30.6865ZM40.1254 11.645H36.0424V21.3537L32.4755 11.645H28.94L25.8925 19.762C25.5704 17.7161 23.4511 17.0078 21.785 16.4797C20.6867 16.1262 19.5178 15.6069 19.5284 15.0317C19.5377 14.5613 20.1563 14.1252 21.3765 14.1903C22.199 14.2319 22.9244 14.2984 24.3645 14.9947L25.783 12.5237C24.4689 11.8524 22.6481 11.431 21.1585 11.4278H21.1492C19.4115 11.4278 17.9635 11.9943 17.0653 12.9216C16.4411 13.5703 16.1034 14.3908 16.0881 15.3043C16.065 16.5555 16.5257 17.4435 17.4899 18.1536C18.3059 18.7515 19.3468 19.1364 20.2663 19.4247C21.4006 19.7745 22.3265 20.0799 22.3159 20.7309C22.3066 20.9679 22.2184 21.1901 22.047 21.3657C21.7647 21.6591 21.3308 21.7677 20.7306 21.7811C19.5737 21.8042 18.7157 21.624 17.349 20.8163L16.0881 23.322C17.4506 24.0977 19.0636 24.5514 20.7098 24.5514H20.9228C22.3551 24.5237 23.5121 24.1148 24.4366 23.3719L24.5863 23.2411L24.1779 24.3389H27.8857L28.5085 22.445C29.16 22.6654 29.902 22.7892 30.6875 22.7892C31.454 22.7892 32.1771 22.6737 32.817 22.463L33.4158 24.3389H39.4656V20.4162H40.7857C43.9737 20.4162 45.8616 18.7936 45.8616 16.0703C45.8616 13.0394 44.0282 11.6491 40.125 11.6491" fill="white"/>
</g>
<defs>
<linearGradient id="paint0_linear_1_2868" x1="36.2342" y1="7.79667" x2="36.2342" y2="28.3073" gradientUnits="userSpaceOnUse">
<stop stop-color="#00B8F1"/>
<stop offset="0.2199" stop-color="#06A5E5"/>
<stop offset="0.7943" stop-color="#1870C5"/>
<stop offset="1" stop-color="#1D61BC"/>
</linearGradient>
</defs>
</svg>
