<svg width="93" height="20" viewBox="0 0 93 20" fill="none" xmlns="http://www.w3.org/2000/svg">
<g id="Twilio&#226;&#128;&#148;Segment&#226;&#128;&#148;Horizontal&#226;&#128;&#148;Green 1" clip-path="url(#clip0_168_84)">
<path id="Vector" d="M18.2729 6.71741H7.99927C7.80329 6.71741 7.64441 6.87628 7.64441 7.07227V8.26838C7.64441 8.46436 7.80329 8.62324 7.99927 8.62324H18.2729C18.4689 8.62324 18.6278 8.46436 18.6278 8.26838V7.07227C18.6278 6.87628 18.4689 6.71741 18.2729 6.71741Z" fill="#52BD94"/>
<path id="Vector_2" d="M11.4773 11.4795H1.20362C1.00763 11.4795 0.848755 11.6384 0.848755 11.8344V13.0305C0.848755 13.2265 1.00763 13.3854 1.20362 13.3854H11.4773C11.6732 13.3854 11.8321 13.2265 11.8321 13.0305V11.8344C11.8321 11.6384 11.6732 11.4795 11.4773 11.4795Z" fill="#52BD94"/>
<path id="Vector_3" fill-rule="evenodd" clip-rule="evenodd" d="M2.16641 8.02148C2.25654 8.04475 2.3522 8.03182 2.4329 7.98544C2.51361 7.93905 2.57294 7.86291 2.5982 7.77332C3.16708 5.99264 4.38071 4.48873 6.00105 3.55656C7.62139 2.62439 9.53153 2.33121 11.3569 2.73452C11.4452 2.75273 11.5371 2.73637 11.6138 2.68882C11.6904 2.64127 11.7459 2.56615 11.7688 2.47892L12.079 1.32128C12.0911 1.27481 12.0937 1.22636 12.0866 1.17885C12.0796 1.13135 12.0629 1.08576 12.0378 1.04484C12.0126 1.00393 11.9795 0.968521 11.9403 0.940756C11.9011 0.912991 11.8567 0.893442 11.8097 0.883285C9.50309 0.364075 7.08549 0.733174 5.03885 1.91701C2.99221 3.10084 1.46685 5.01245 0.766816 7.27081C0.753636 7.3161 0.74962 7.36357 0.755003 7.41044C0.760386 7.45731 0.77506 7.50263 0.798166 7.54376C0.821272 7.58489 0.852347 7.621 0.889573 7.64998C0.9268 7.67895 0.96943 7.70022 1.01497 7.71252L2.16641 8.02148Z" fill="#52BD94"/>
<path id="Vector_4" fill-rule="evenodd" clip-rule="evenodd" d="M17.3126 12.0763C17.2218 12.0519 17.125 12.0643 17.0433 12.1107C16.9615 12.1572 16.9013 12.234 16.8758 12.3245C16.3082 14.1063 15.0951 15.6117 13.4746 16.5451C11.8541 17.4785 9.94331 17.7725 8.11719 17.3695C8.02883 17.351 7.93674 17.3672 7.86003 17.4148C7.78332 17.4624 7.72789 17.5377 7.70525 17.6251L7.40126 18.7765C7.38894 18.8231 7.38618 18.8717 7.39317 18.9193C7.40016 18.967 7.41674 19.0127 7.44191 19.0538C7.46707 19.0948 7.50031 19.1304 7.5396 19.1582C7.5789 19.1861 7.62343 19.2056 7.67051 19.2158C9.97725 19.7337 12.3944 19.3639 14.4408 18.18C16.4872 16.9961 18.0126 15.0849 18.7134 12.827C18.7268 12.7818 18.7309 12.7344 18.7256 12.6875C18.7203 12.6407 18.7056 12.5954 18.6825 12.5543C18.6593 12.5132 18.6282 12.4772 18.5909 12.4484C18.5536 12.4196 18.5109 12.3986 18.4653 12.3865L17.3126 12.0763Z" fill="#52BD94"/>
<path id="Vector_5" d="M15.1685 4.62548C15.7455 4.62548 16.2132 4.15774 16.2132 3.58075C16.2132 3.00375 15.7455 2.53601 15.1685 2.53601C14.5915 2.53601 14.1238 3.00375 14.1238 3.58075C14.1238 4.15774 14.5915 4.62548 15.1685 4.62548Z" fill="#52BD94"/>
<path id="Vector_6" d="M4.31048 17.5655C4.88747 17.5655 5.35522 17.0978 5.35522 16.5208C5.35522 15.9438 4.88747 15.4761 4.31048 15.4761C3.73349 15.4761 3.26575 15.9438 3.26575 16.5208C3.26575 17.0978 3.73349 17.5655 4.31048 17.5655Z" fill="#52BD94"/>
<path id="Vector_7" fill-rule="evenodd" clip-rule="evenodd" d="M44.2139 8.15671C44.5948 7.73838 45.0602 7.40569 45.5794 7.18067C46.0985 6.95566 46.6595 6.84343 47.2252 6.85141C48.3246 6.85141 49.1807 7.19139 49.7217 7.84404V7.30306C49.7252 7.22828 49.7564 7.15748 49.8091 7.10432C49.8618 7.05116 49.9323 7.01941 50.0071 7.0152H51.4563C51.5309 7.01968 51.6013 7.05151 51.654 7.10462C51.7066 7.15773 51.7378 7.22838 51.7417 7.30306V15.3495C51.7866 16.4849 51.4357 17.6007 50.749 18.506C49.9673 19.4565 48.7812 19.9379 47.2227 19.9379C45.0564 19.9379 43.3466 18.5668 43.0649 16.6089C43.0581 16.5383 43.0762 16.4675 43.116 16.4088C43.1559 16.3501 43.2151 16.3072 43.2833 16.2875L44.699 15.955C44.7064 15.9544 44.7139 15.9544 44.7213 15.955C44.7583 15.9494 44.7959 15.9511 44.8322 15.9601C44.8684 15.9692 44.9025 15.9853 44.9325 16.0075C44.9625 16.0298 44.9878 16.0578 45.0069 16.0899C45.0261 16.1219 45.0386 16.1575 45.0439 16.1945C45.1071 16.7242 45.3658 17.2113 45.7692 17.5604C46.1727 17.9094 46.6919 18.0953 47.2252 18.0817C48.9177 18.0817 49.7068 17.2131 49.7068 15.3979V14.6931C49.3962 15.0411 49.013 15.3166 48.5841 15.5002C48.1553 15.6837 47.6914 15.7708 47.2252 15.7552C44.8169 15.7552 43.0699 13.8854 43.0699 11.312C43.0485 10.1551 43.456 9.03112 44.2139 8.15671ZM72.3162 6.74099H72.3919C74.9814 6.77573 76.5857 8.57858 76.5857 11.4634C76.5855 11.6163 76.5772 11.7692 76.5609 11.9212C76.5528 11.9893 76.52 12.0521 76.4689 12.0978C76.4177 12.1435 76.3516 12.169 76.283 12.1694H70.1275C70.146 12.7908 70.4082 13.3799 70.8574 13.8096C71.3066 14.2394 71.9068 14.4751 72.5284 14.4661C73.0152 14.4965 73.498 14.361 73.898 14.0819C74.2979 13.8027 74.5915 13.3962 74.7308 12.9287C74.7566 12.8604 74.8077 12.8046 74.8736 12.7729C74.9394 12.7413 75.0149 12.7362 75.0844 12.7588L76.3091 13.193C76.3445 13.2046 76.377 13.2235 76.4046 13.2485C76.4322 13.2735 76.4542 13.3041 76.4691 13.3382C76.4859 13.3711 76.4958 13.4071 76.4984 13.444C76.5009 13.4809 76.4961 13.5179 76.484 13.5529C76.2062 14.3758 75.6714 15.0877 74.9583 15.5837C74.2452 16.0796 73.3916 16.3333 72.5234 16.3074C71.9449 16.313 71.371 16.2038 70.8349 15.9862C70.2988 15.7685 69.8113 15.4467 69.4004 15.0393C68.952 14.5678 68.6024 14.0114 68.3721 13.4029C68.1418 12.7943 68.0354 12.1459 68.0591 11.4956C68.0591 8.51778 70.223 6.73478 72.3138 6.73478L72.3162 6.74099ZM37.4901 6.74099C40.1255 6.74099 41.7633 8.55128 41.7633 11.4646C41.7631 11.6176 41.7548 11.7704 41.7385 11.9225C41.7311 11.9909 41.6986 12.0542 41.6473 12.1C41.5959 12.1459 41.5294 12.171 41.4606 12.1706H35.3051C35.3223 12.7955 35.586 13.3882 36.0386 13.8194C36.4911 14.2506 37.0959 14.4853 37.7209 14.4723C38.2078 14.5031 38.6908 14.3679 39.0908 14.0886C39.4909 13.8094 39.7844 13.4026 39.9233 12.9349C39.9483 12.866 39.9993 12.8096 40.0654 12.7778C40.1315 12.746 40.2074 12.7414 40.2769 12.765L41.5065 13.198C41.542 13.2094 41.5746 13.2283 41.6022 13.2533C41.6298 13.2783 41.6517 13.309 41.6665 13.3432C41.6806 13.3772 41.6879 13.4137 41.6879 13.4505C41.6879 13.4873 41.6806 13.5238 41.6665 13.5578C41.3889 14.3804 40.8544 15.092 40.1418 15.5879C39.4292 16.0838 38.5762 16.3377 37.7085 16.3123C37.1289 16.3186 36.5539 16.2097 36.0167 15.9921C35.4795 15.7744 34.9909 15.4522 34.5792 15.0443C34.1317 14.5722 33.7826 14.0157 33.5523 13.4073C33.322 12.7989 33.2151 12.1507 33.2379 11.5006C33.2379 8.52274 35.4019 6.73975 37.4938 6.73975L37.4901 6.74099ZM28.1669 6.74099C29.3493 6.74099 30.306 7.02761 31.0145 7.59464C31.4929 7.97624 31.8478 8.49083 32.0344 9.07365C32.0403 9.09842 32.0412 9.12412 32.037 9.14924C32.0329 9.17436 32.0238 9.19841 32.0103 9.22C31.9968 9.24158 31.9791 9.26027 31.9583 9.27498C31.9376 9.28968 31.9141 9.30012 31.8892 9.30567L30.4214 9.79082C30.3562 9.81562 30.2843 9.81562 30.2191 9.79082C30.1914 9.77803 30.1668 9.75945 30.1469 9.73633C30.127 9.71321 30.1123 9.6861 30.1037 9.65681C29.9797 9.1816 29.5528 8.38377 28.1644 8.38377C27.1954 8.38377 26.6147 8.93964 26.6147 9.47814C26.6147 9.83548 26.7996 10.2958 27.6731 10.4621L29.2861 10.7648C31.0889 11.1284 32.1212 12.1148 32.1212 13.4883V13.4648C32.1212 14.8296 30.8085 16.2875 28.3691 16.2875C25.5402 16.2875 24.4284 14.6869 24.2237 13.7427C24.2169 13.6934 24.2285 13.6433 24.2561 13.6019C24.2838 13.5605 24.3257 13.5307 24.3738 13.5181L25.8876 13.0466C25.9147 13.0417 25.9424 13.0417 25.9695 13.0466C26.0127 13.0458 26.0554 13.0561 26.0935 13.0764C26.121 13.0896 26.1452 13.1087 26.1645 13.1322C26.1838 13.1558 26.1977 13.1834 26.2052 13.2129C26.3963 14.1211 27.2165 14.6621 28.3964 14.6621C29.4945 14.6621 29.9946 14.0876 29.9946 13.5665C29.9946 13.0454 29.5491 12.662 28.7836 12.5081L27.0862 12.1781C25.5029 11.879 24.5165 10.8951 24.5165 9.61463C24.5165 8.05621 26.1903 6.74099 28.1669 6.74099ZM90.5222 4.216C90.5992 4.22075 90.6715 4.25473 90.7243 4.311C90.7771 4.36727 90.8064 4.44158 90.8063 4.51875V7.00031H92.3982C92.4747 7.00594 92.5462 7.04027 92.5984 7.09642C92.6507 7.15256 92.6798 7.22637 92.6799 7.30306V8.62573C92.6802 8.70099 92.6508 8.77333 92.598 8.82702C92.5453 8.8807 92.4735 8.91137 92.3982 8.91235H90.8063V13.3283C90.8063 14.0603 91.0966 14.3631 91.8436 14.3631C92.0139 14.3602 92.1838 14.3461 92.3523 14.3209C92.3931 14.3139 92.4348 14.316 92.4747 14.3269C92.5146 14.3379 92.5516 14.3574 92.5831 14.3842C92.6132 14.4121 92.6373 14.4459 92.6539 14.4834C92.6706 14.521 92.6794 14.5615 92.6799 14.6026V15.8433C92.6803 15.9051 92.6607 15.9653 92.624 16.015C92.5873 16.0646 92.5355 16.1011 92.4764 16.1188C92.1131 16.2206 91.737 16.2695 91.3597 16.264C89.764 16.264 88.7751 15.2378 88.7751 13.5826V8.93096H87.3979C87.3234 8.92645 87.2531 8.89457 87.2007 8.84144C87.1482 8.78831 87.1173 8.71767 87.1138 8.6431V7.31795C87.1133 7.24069 87.1425 7.16621 87.1954 7.10987C87.2483 7.05354 87.3208 7.01965 87.3979 7.0152H87.7552C88.1883 7.0152 88.9178 6.86382 88.9178 5.8315V4.51875C88.9174 4.44149 88.9466 4.36701 88.9995 4.31068C89.0524 4.25434 89.1248 4.22045 89.202 4.216H90.5222ZM60.6442 8.21999C60.9554 7.74437 61.3851 7.35791 61.8909 7.09859C62.3966 6.83928 62.9612 6.71604 63.529 6.74099C65.1024 6.74099 66.6918 7.849 66.6918 10.2698V15.8731C66.688 15.9478 66.6567 16.0184 66.6041 16.0715C66.5514 16.1247 66.4811 16.1565 66.4064 16.161H64.9559C64.8815 16.1562 64.8114 16.1242 64.759 16.0712C64.7067 16.0181 64.6756 15.9476 64.6718 15.8731V10.4497C64.6718 9.76352 64.4571 8.60712 63.0042 8.60712C61.9421 8.60712 61.1877 9.44216 61.1877 10.6532V15.8731C61.1842 15.9477 61.1532 16.0183 61.1008 16.0714C61.0483 16.1246 60.9781 16.1565 60.9036 16.161H59.4345C59.3598 16.1565 59.2895 16.1247 59.2368 16.0715C59.1842 16.0184 59.1529 15.9478 59.1491 15.8731V10.4497C59.1516 9.76352 58.9382 8.60215 57.484 8.60215C56.3797 8.60215 55.6352 9.43099 55.6352 10.6656V15.8731C55.6314 15.9476 55.6004 16.0181 55.548 16.0712C55.4956 16.1242 55.4255 16.1562 55.3511 16.161H53.9019C53.8278 16.1559 53.7582 16.1237 53.7062 16.0707C53.6543 16.0176 53.6237 15.9473 53.6202 15.8731V7.28445C53.6239 7.21036 53.6546 7.1402 53.7065 7.08718C53.7584 7.03416 53.8279 7.00194 53.9019 6.99659H55.2965C55.3709 7.00136 55.441 7.03333 55.4934 7.0864C55.5458 7.13948 55.5768 7.20996 55.5806 7.28445V7.80185C55.8913 7.462 56.2704 7.19177 56.6929 7.00892C57.1155 6.82608 57.572 6.73476 58.0324 6.74099C58.5613 6.7255 59.0844 6.85516 59.5448 7.11589C60.0052 7.37662 60.3855 7.75846 60.6442 8.21999ZM82.7437 6.74099C83.2076 6.72115 83.6699 6.80701 84.0957 6.99208C84.5216 7.17716 84.8997 7.4566 85.2017 7.8093C85.765 8.55085 86.0516 9.4659 86.0119 10.3963V15.8731C86.0088 15.9472 85.9784 16.0175 85.9267 16.0706C85.875 16.1237 85.8055 16.1559 85.7315 16.161H84.2637C84.1891 16.1562 84.1189 16.1243 84.0663 16.0712C84.0137 16.0182 83.9824 15.9477 83.9783 15.8731V10.6891C83.9783 9.33297 83.3405 8.6431 82.1295 8.6431C81.8659 8.6346 81.604 8.68824 81.365 8.79967C81.126 8.91111 80.9165 9.07722 80.7535 9.28458C80.4253 9.75679 80.2594 10.3229 80.2808 10.8976V15.8731C80.277 15.9476 80.2459 16.0181 80.1935 16.0712C80.1411 16.1242 80.0711 16.1562 79.9966 16.161H78.5313C78.4569 16.1562 78.3868 16.1242 78.3344 16.0712C78.282 16.0181 78.251 15.9476 78.2472 15.8731V7.27824C78.2501 7.20336 78.2809 7.13227 78.3334 7.07882C78.3859 7.02537 78.4565 6.9934 78.5313 6.98914H79.9632C80.0371 6.99394 80.1067 7.02582 80.1587 7.07869C80.2106 7.13156 80.2413 7.20172 80.2448 7.27576V7.88126C80.5483 7.51499 80.9308 7.22215 81.3636 7.02468C81.7963 6.82721 82.2682 6.73022 82.7437 6.74099ZM47.4771 8.66171C46.0477 8.66171 45.1407 9.67791 45.1407 11.312C45.1407 12.9461 46.0366 13.9611 47.4771 13.9611C48.8506 13.9611 49.7763 12.8952 49.7763 11.312C49.7763 9.72878 48.8506 8.66171 47.4771 8.66171ZM37.505 8.57982C36.9776 8.57071 36.4658 8.75873 36.0697 9.10709C35.6736 9.45545 35.4217 9.93907 35.3634 10.4633H39.6689C39.5659 9.30071 38.7396 8.57982 37.505 8.57982ZM72.3398 8.57982C71.8129 8.57162 71.3018 8.76002 70.9063 9.10826C70.5108 9.45651 70.2593 9.93961 70.2007 10.4633H74.5074C74.4007 9.30071 73.5793 8.57982 72.3386 8.57982H72.3398Z" fill="#52BD94"/>
<path id="Vector_8" d="M26.6519 0.932892V3.81894H25.8342V0.932892H24.7039V0.233093H27.7946V0.932892H26.6519Z" fill="#52BD94"/>
<path id="Vector_9" d="M32.898 3.83135H32.048L31.2688 1.18849L30.476 3.83135H29.6434L28.5887 0.233093H29.4573L30.1261 2.82508L30.8805 0.233093H31.749L32.4935 2.82508L33.1412 0.233093H33.9402L32.898 3.83135Z" fill="#52BD94"/>
<path id="Vector_10" d="M35.0657 3.81894V0.233093H35.8709V3.81894H35.0657Z" fill="#52BD94"/>
<path id="Vector_11" d="M37.3201 3.81894V0.233093H38.1377V3.11294H39.5373V3.81894H37.3201Z" fill="#52BD94"/>
<path id="Vector_12" d="M40.7559 3.81894V0.233093H41.5673V3.81894H40.7559Z" fill="#52BD94"/>
<path id="Vector_13" d="M44.6035 3.88718C43.6109 3.88718 42.8168 3.17497 42.8168 2.03222C42.8168 0.889461 43.622 0.171051 44.6097 0.171051C45.5974 0.171051 46.3952 0.883257 46.3952 2.03222C46.3952 3.18118 45.5961 3.88718 44.6035 3.88718ZM44.6035 0.827422C43.9831 0.827422 43.622 1.33862 43.622 2.02601C43.622 2.7134 43.9943 3.23081 44.6035 3.23081C45.2127 3.23081 45.5713 2.7072 45.5713 2.03222C45.5713 1.35723 45.209 0.827422 44.6097 0.827422H44.6035Z" fill="#52BD94"/>
</g>
<defs>
<clipPath id="clip0_168_84">
<rect width="91.9342" height="19.773" fill="white" transform="translate(0.745728 0.164886)"/>
</clipPath>
</defs>
</svg>
